<?xml version="1.0" encoding="UTF-8" standalone="no"?>
<svg width="191px" height="65px" viewBox="0 0 191 65" version="1.1" xmlns="http://www.w3.org/2000/svg" xmlns:xlink="http://www.w3.org/1999/xlink" xmlns:sketch="http://www.bohemiancoding.com/sketch/ns">
    <!-- Generator: Sketch 3.3 (11970) - http://www.bohemiancoding.com/sketch -->
    <title>amazon-apps-store-us-black</title>
    <desc>Created with Sketch.</desc>
    <defs>
        <path id="path-1" d="M0,0 L190.576,0 L190.576,64.94 L0,64.94"></path>
        <path id="path-3" d="M53.291,46.305 C53.291,49.987 50.306,52.972 46.624,52.972 L7.279,52.972 C3.597,52.972 0.612,49.987 0.612,46.305 L0.612,6.96 C0.612,3.278 3.597,0.293 7.279,0.293 L46.624,0.293 C50.306,0.293 53.291,3.278 53.291,6.96 L53.291,46.305"></path>
        <linearGradient x1="50%" y1="0%" x2="50%" y2="100%" id="linearGradient-5">
            <stop stop-color="#FBA02A" offset="0%"></stop>
            <stop stop-color="#CA6C12" offset="100%"></stop>
        </linearGradient>
    </defs>
    <g id="Page-1" stroke="none" stroke-width="1" fill="none" fill-rule="evenodd" sketch:type="MSPage">
        <g id="amazon-apps-store-us-black" sketch:type="MSLayerGroup">
            <g id="Group-3">
                <mask id="mask-2" sketch:name="Clip 2" fill="white">
                    <use xlink:href="#path-1"></use>
                </mask>
                <g id="Clip-2"></g>
                <path d="M190.576,55.471 C190.576,60.733 186.31,65 181.047,65 L9.529,65 C4.267,65 0,60.733 0,55.471 L0,9.529 C0,4.266 4.267,0 9.529,0 L181.047,0 C186.31,0 190.576,4.266 190.576,9.529 L190.576,55.471" id="Fill-1" fill="#1A1918" sketch:type="MSShapeGroup" mask="url(#mask-2)"></path>
            </g>
            <g id="Group-7" transform="translate(6.000000, 6.000000)">
                <mask id="mask-4" sketch:name="Mask" fill="white">
                    <use xlink:href="#path-3"></use>
                </mask>
                <use id="Mask" fill="#FFFFFF" sketch:type="MSShapeGroup" xlink:href="#path-3"></use>
                <path d="M54.7515,46.408 C54.7515,50.09 51.6126574,53.075 47.7408924,53.075 L6.3681076,53.075 C2.49634261,53.075 -0.6425,50.09 -0.6425,46.408 L-0.6425,17.475 C-0.6425,17.475 11.150505,19.43 27.0550258,19.319 C41.9879249,19.215 54.7515,17.475 54.7515,17.475 L54.7515,46.408" id="Clip-6" fill="url(#linearGradient-5)" sketch:type="MSShapeGroup" mask="url(#mask-4)"></path>
            </g>
            <path d="M13.382,6.344 C9.734,6.344 6.766,9.312 6.766,12.96 L6.766,52.305 C6.766,55.953 9.734,58.921 13.382,58.921 L52.727,58.921 C56.375,58.921 59.343,55.953 59.343,52.305 L59.343,12.96 C59.343,9.312 56.375,6.344 52.727,6.344 L13.382,6.344 L13.382,6.344 Z M52.727,59.023 L13.382,59.023 C9.677,59.023 6.663,56.01 6.663,52.305 L6.663,12.96 C6.663,9.255 9.677,6.241 13.382,6.241 L52.727,6.241 C56.432,6.241 59.445,9.255 59.445,12.96 L59.445,52.305 C59.445,56.01 56.432,59.023 52.727,59.023 L52.727,59.023 Z" id="Fill-8" fill="#1A1918" sketch:type="MSShapeGroup"></path>
            <path d="M37.525,20.123 C35.375,21.75 32.257,22.616 29.573,22.616 C25.81,22.616 22.423,21.19 19.859,18.815 C19.658,18.629 19.837,18.375 20.079,18.519 C22.845,20.169 26.266,21.164 29.799,21.164 C32.182,21.164 34.802,20.656 37.213,19.608 C37.576,19.45 37.881,19.854 37.525,20.123" id="Fill-9" fill="#1A1918" sketch:type="MSShapeGroup"></path>
            <path d="M38.42,19.076 C38.145,18.714 36.602,18.904 35.909,18.989 C35.699,19.015 35.667,18.827 35.855,18.691 C37.086,17.804 39.104,18.061 39.338,18.357 C39.574,18.657 39.276,20.73 38.122,21.72 C37.945,21.872 37.776,21.791 37.854,21.589 C38.114,20.925 38.695,19.437 38.42,19.076" id="Fill-10" fill="#1A1918" sketch:type="MSShapeGroup"></path>
            <path d="M35.855,12.428 L35.855,11.567 C35.855,11.436 35.952,11.349 36.068,11.349 L39.833,11.349 C39.953,11.349 40.05,11.438 40.05,11.566 L40.05,12.305 C40.049,12.429 39.947,12.59 39.767,12.847 L37.816,15.702 C38.54,15.685 39.306,15.796 39.964,16.175 C40.112,16.261 40.152,16.387 40.164,16.511 L40.164,17.431 C40.164,17.557 40.028,17.704 39.886,17.627 C38.728,17.005 37.189,16.937 35.908,17.635 C35.777,17.707 35.64,17.562 35.64,17.436 L35.64,16.562 C35.64,16.422 35.643,16.183 35.78,15.97 L38.04,12.646 L36.072,12.646 C35.952,12.646 35.855,12.558 35.855,12.428" id="Fill-11" fill="#1A1918" sketch:type="MSShapeGroup"></path>
            <path d="M22.224,17.809 L21.078,17.809 C20.969,17.801 20.882,17.717 20.873,17.61 L20.874,11.581 C20.874,11.461 20.973,11.365 21.095,11.365 L22.162,11.364 C22.273,11.37 22.363,11.457 22.37,11.567 L22.37,12.354 L22.392,12.354 C22.669,11.593 23.193,11.237 23.899,11.237 C24.616,11.237 25.065,11.593 25.385,12.354 C25.663,11.593 26.294,11.237 26.968,11.237 C27.449,11.237 27.973,11.44 28.294,11.897 C28.657,12.405 28.583,13.14 28.583,13.787 L28.581,17.592 C28.581,17.712 28.482,17.809 28.361,17.809 L27.217,17.809 C27.102,17.801 27.011,17.708 27.011,17.592 L27.011,14.396 C27.011,14.143 27.032,13.508 26.979,13.267 C26.893,12.861 26.636,12.747 26.305,12.747 C26.027,12.747 25.738,12.938 25.621,13.242 C25.503,13.546 25.514,14.054 25.514,14.396 L25.514,17.592 C25.514,17.712 25.415,17.809 25.293,17.809 L24.149,17.809 C24.034,17.801 23.943,17.708 23.943,17.592 L23.942,14.396 C23.942,13.724 24.049,12.734 23.236,12.734 C22.413,12.734 22.445,13.699 22.445,14.396 L22.444,17.592 C22.445,17.712 22.346,17.809 22.224,17.809" id="Fill-12" fill="#1A1918" sketch:type="MSShapeGroup"></path>
            <path d="M43.199,12.468 C42.354,12.468 42.301,13.647 42.301,14.383 C42.301,15.119 42.29,16.692 43.188,16.692 C44.076,16.692 44.119,15.424 44.119,14.65 C44.119,14.143 44.097,13.534 43.947,13.051 C43.819,12.633 43.563,12.468 43.199,12.468 L43.199,12.468 Z M43.188,11.237 C44.888,11.237 45.808,12.734 45.808,14.637 C45.808,16.477 44.792,17.936 43.188,17.936 C41.521,17.936 40.611,16.438 40.611,14.574 C40.611,12.696 41.531,11.237 43.188,11.237 L43.188,11.237 Z" id="Fill-13" fill="#1A1918" sketch:type="MSShapeGroup"></path>
            <path d="M48.013,17.809 L46.872,17.809 C46.757,17.801 46.666,17.708 46.666,17.592 L46.664,11.562 C46.674,11.451 46.769,11.365 46.884,11.365 L47.947,11.364 C48.046,11.37 48.129,11.439 48.15,11.533 L48.15,12.456 L48.172,12.456 C48.492,11.631 48.941,11.237 49.733,11.237 C50.246,11.237 50.749,11.428 51.069,11.948 C51.369,12.43 51.369,13.242 51.369,13.825 L51.369,17.619 C51.356,17.726 51.262,17.809 51.149,17.809 L50.001,17.809 C49.895,17.802 49.81,17.722 49.797,17.619 L49.797,14.346 C49.797,13.686 49.872,12.722 49.081,12.722 C48.802,12.722 48.546,12.912 48.417,13.204 C48.257,13.572 48.236,13.939 48.236,14.346 L48.236,17.592 C48.233,17.712 48.135,17.809 48.013,17.809" id="Fill-14" fill="#1A1918" sketch:type="MSShapeGroup"></path>
            <path d="M34.111,17.794 C34.035,17.863 33.926,17.868 33.84,17.821 C33.46,17.497 33.392,17.347 33.184,17.038 C32.555,17.695 32.11,17.892 31.295,17.892 C30.331,17.892 29.581,17.282 29.581,16.061 C29.581,15.107 30.085,14.46 30.802,14.142 C31.424,13.862 32.292,13.811 32.956,13.735 L32.956,13.582 C32.956,13.302 32.978,12.972 32.817,12.73 C32.678,12.514 32.41,12.425 32.174,12.425 C31.737,12.425 31.349,12.655 31.253,13.13 C31.233,13.236 31.158,13.341 31.055,13.346 L29.944,13.223 C29.85,13.202 29.746,13.125 29.773,12.978 C30.028,11.597 31.245,11.179 32.335,11.179 C32.892,11.179 33.621,11.332 34.06,11.764 C34.617,12.298 34.563,13.01 34.563,13.786 L34.563,15.615 C34.563,16.166 34.787,16.407 34.996,16.704 C35.069,16.811 35.085,16.938 34.992,17.016 C34.758,17.217 34.343,17.587 34.114,17.796 L34.111,17.794 L34.111,17.794 Z M32.956,14.93 C32.956,15.387 32.967,15.769 32.742,16.176 C32.56,16.506 32.271,16.709 31.949,16.709 C31.51,16.709 31.252,16.366 31.252,15.858 C31.252,14.857 32.127,14.675 32.956,14.675 L32.956,14.93 L32.956,14.93 Z" id="Fill-15" fill="#1A1918" sketch:type="MSShapeGroup"></path>
            <path d="M19.198,17.794 C19.122,17.863 19.013,17.868 18.928,17.821 C18.547,17.497 18.479,17.347 18.271,17.038 C17.642,17.695 17.197,17.892 16.382,17.892 C15.418,17.892 14.668,17.282 14.668,16.061 C14.668,15.107 15.171,14.46 15.89,14.142 C16.511,13.862 17.379,13.811 18.044,13.735 L18.044,13.582 C18.044,13.302 18.064,12.972 17.904,12.73 C17.765,12.514 17.497,12.425 17.261,12.425 C16.824,12.425 16.436,12.655 16.34,13.13 C16.32,13.236 16.245,13.341 16.142,13.346 L15.031,13.223 C14.938,13.202 14.833,13.125 14.86,12.978 C15.115,11.597 16.331,11.179 17.422,11.179 C17.979,11.179 18.707,11.332 19.147,11.764 C19.704,12.298 19.651,13.01 19.651,13.786 L19.651,15.615 C19.651,16.166 19.873,16.407 20.083,16.704 C20.156,16.811 20.172,16.938 20.079,17.016 C19.845,17.217 19.43,17.587 19.201,17.796 L19.198,17.794 L19.198,17.794 Z M18.044,14.93 C18.044,15.387 18.054,15.769 17.829,16.176 C17.647,16.506 17.357,16.709 17.036,16.709 C16.597,16.709 16.34,16.366 16.34,15.858 C16.34,14.857 17.215,14.675 18.044,14.675 L18.044,14.93 L18.044,14.93 Z" id="Fill-16" fill="#1A1918" sketch:type="MSShapeGroup"></path>
            <path d="M27.518,40.194 C27.518,45.337 23.349,49.507 18.206,49.507 C13.063,49.507 8.895,45.337 8.895,40.194 C8.895,35.052 13.063,30.883 18.206,30.883 C23.349,30.883 27.518,35.052 27.518,40.194" id="Fill-17" fill="#1A2659" sketch:type="MSShapeGroup"></path>
            <path d="M18.727,36.639 L16.493,36.639 L16.493,44.918 C16.493,44.918 16.394,45.081 16.197,44.814 C16.1,44.683 13.471,40.778 13.471,40.778 C13.471,40.778 13.043,40.352 12.419,40.516 C11.795,40.68 11.565,41.106 11.861,41.633 C12.156,42.158 14.16,46.921 16.755,48.235 C18.601,49.169 20.796,48.825 22.044,48.235 C23.149,47.713 24.876,46.429 25.008,44.721 C25.139,43.012 25.005,41.501 25.005,41.501 L23.842,41.501 L23.842,43.57 L23.096,43.57 L23.096,40.548 L21.781,40.548 L21.781,43.019 L20.998,43.019 L20.998,39.793 L19.519,39.793 L19.519,42.855 L18.801,42.855 L18.727,36.639" id="Fill-18" fill="#FFFFFF" sketch:type="MSShapeGroup"></path>
            <path d="M12.551,36.639 L14.423,36.639 L14.423,37.789 L12.551,37.789 L12.551,36.639 Z" id="Fill-19" fill="#FFFFFF" sketch:type="MSShapeGroup"></path>
            <path d="M20.911,36.639 L22.784,36.639 L22.784,37.789 L20.911,37.789 L20.911,36.639 Z" id="Fill-20" fill="#FFFFFF" sketch:type="MSShapeGroup"></path>
            <path d="M16.624,32.5 L18.562,32.5 L18.562,34.668 L16.624,34.668 L16.624,32.5 Z" id="Fill-21" fill="#FFFFFF" sketch:type="MSShapeGroup"></path>
            <path d="M14.949,35.719 L15.639,35.029 L14.362,33.715 L13.59,34.405 L14.949,35.719" id="Fill-22" fill="#FFFFFF" sketch:type="MSShapeGroup"></path>
            <path d="M20.473,35.514 L19.886,34.721 L21.266,33.612 L21.832,34.405 L20.473,35.514" id="Fill-23" fill="#FFFFFF" sketch:type="MSShapeGroup"></path>
            <path d="M33.906,39.825 L33.753,39.825 C32.275,39.825 31.396,40.176 31.396,41.372 C31.396,42.122 31.829,42.632 32.498,42.632 C33.53,42.632 33.906,41.755 33.906,40.288 L33.906,39.825 L33.906,39.825 Z M30.504,36.109 C30.992,35.854 31.675,35.504 32.777,35.504 C35.007,35.504 35.523,36.747 35.523,38.805 L35.523,42.393 C35.523,42.983 35.476,43.525 35.518,43.844 L33.957,43.844 C33.921,43.468 33.962,43.127 33.962,42.728 L33.934,42.728 C33.502,43.398 32.958,43.972 31.926,43.972 C30.811,43.972 29.779,43.095 29.779,41.564 C29.779,39.331 31.369,38.773 33.558,38.773 L33.906,38.773 L33.906,38.47 C33.906,37.656 33.558,36.907 32.568,36.907 C31.703,36.907 30.937,37.386 30.602,37.704 L30.504,36.109 L30.504,36.109 Z" id="Fill-24" fill="#FFFFFF" sketch:type="MSShapeGroup"></path>
            <path d="M33.753,39.877 C32.137,39.877 31.448,40.324 31.448,41.372 C31.448,42.106 31.86,42.581 32.498,42.581 C33.424,42.581 33.855,41.853 33.855,40.288 L33.855,39.877 L33.753,39.877 L33.753,39.877 Z M32.498,42.684 C31.809,42.684 31.345,42.156 31.345,41.372 C31.345,40.252 32.065,39.774 33.753,39.774 L33.906,39.774 C33.935,39.774 33.957,39.797 33.957,39.825 L33.957,40.288 C33.957,41.923 33.494,42.684 32.498,42.684 L32.498,42.684 Z M33.558,38.824 C30.98,38.824 29.831,39.669 29.831,41.564 C29.831,43.11 30.885,43.921 31.926,43.921 C32.96,43.921 33.482,43.334 33.891,42.7 C33.9,42.686 33.916,42.677 33.934,42.677 L33.962,42.677 C33.99,42.677 34.013,42.699 34.013,42.728 C34.013,42.871 34.008,43.008 34.003,43.139 C33.995,43.361 33.987,43.571 34.004,43.793 L35.46,43.793 C35.442,43.593 35.45,43.326 35.459,43.022 C35.465,42.82 35.472,42.612 35.472,42.393 L35.472,38.805 C35.472,36.854 35.014,35.555 32.777,35.555 C31.699,35.555 31.015,35.9 30.558,36.14 L30.647,37.595 C31.002,37.291 31.729,36.856 32.568,36.856 C33.451,36.856 33.957,37.443 33.957,38.47 L33.957,38.773 C33.957,38.801 33.935,38.824 33.906,38.824 L33.558,38.824 L33.558,38.824 Z M31.926,44.023 C30.834,44.023 29.728,43.179 29.728,41.564 C29.728,39.044 31.774,38.722 33.558,38.722 L33.855,38.722 L33.855,38.47 C33.855,38.016 33.729,36.958 32.568,36.958 C31.692,36.958 30.943,37.451 30.638,37.741 C30.623,37.756 30.602,37.759 30.583,37.752 C30.564,37.745 30.552,37.728 30.551,37.707 L30.453,36.112 C30.452,36.093 30.463,36.073 30.48,36.063 C30.946,35.82 31.65,35.452 32.777,35.452 C35.099,35.452 35.575,36.792 35.575,38.805 L35.575,42.393 C35.575,42.613 35.568,42.822 35.562,43.024 C35.552,43.355 35.543,43.641 35.569,43.837 C35.571,43.853 35.566,43.867 35.557,43.878 C35.547,43.889 35.533,43.896 35.518,43.896 L33.957,43.896 C33.93,43.896 33.908,43.875 33.905,43.849 C33.882,43.604 33.891,43.376 33.9,43.135 C33.904,43.045 33.907,42.953 33.909,42.858 C33.51,43.451 32.953,44.023 31.926,44.023 L31.926,44.023 Z" id="Fill-25" fill="#FFFFFF" sketch:type="MSShapeGroup"></path>
            <path d="M40.222,42.315 C41.184,42.315 41.724,41.452 41.724,39.81 C41.724,37.912 41.253,36.955 40.25,36.955 C39.231,36.955 38.883,38.111 38.883,39.658 C38.883,41.254 39.273,42.315 40.222,42.315 L40.222,42.315 Z M37.154,37.034 C37.154,36.444 37.15,35.993 37.15,35.646 L38.663,35.649 C38.677,35.906 38.669,35.938 38.669,36.495 L38.71,36.495 C38.989,35.794 39.608,35.504 40.723,35.504 C42.508,35.504 43.35,37.449 43.35,39.73 C43.35,42.409 42.313,43.766 40.766,43.766 C39.733,43.766 39.162,43.61 38.911,42.973 L38.883,42.973 L38.883,46.877 L37.154,46.877 L37.154,37.034 L37.154,37.034 Z" id="Fill-26" fill="#FFFFFF" sketch:type="MSShapeGroup"></path>
            <path d="M40.25,37.006 C39.377,37.006 38.935,37.898 38.935,39.658 C38.935,40.847 39.158,42.263 40.222,42.263 C41.157,42.263 41.672,41.392 41.672,39.81 C41.672,37.923 41.207,37.006 40.25,37.006 L40.25,37.006 Z M40.222,42.366 C39.312,42.366 38.832,41.43 38.832,39.658 C38.832,37.83 39.309,36.903 40.25,36.903 C41.276,36.903 41.775,37.854 41.775,39.81 C41.775,41.458 41.224,42.366 40.222,42.366 L40.222,42.366 Z M37.206,46.826 L38.832,46.826 L38.832,42.973 C38.832,42.944 38.854,42.921 38.883,42.921 L38.911,42.921 C38.932,42.921 38.951,42.935 38.959,42.954 C39.18,43.516 39.652,43.715 40.766,43.715 C42.375,43.715 43.298,42.263 43.298,39.73 C43.298,37.804 42.624,35.555 40.723,35.555 C39.613,35.555 39.025,35.842 38.758,36.515 C38.75,36.534 38.731,36.547 38.71,36.547 L38.669,36.547 C38.64,36.547 38.617,36.523 38.617,36.495 C38.617,36.305 38.618,36.176 38.619,36.077 C38.62,35.909 38.621,35.835 38.614,35.7 L37.201,35.696 C37.201,35.835 37.202,35.988 37.203,36.159 C37.204,36.411 37.206,36.7 37.206,37.034 L37.206,46.826 L37.206,46.826 Z M38.883,46.929 L37.154,46.929 C37.126,46.929 37.103,46.905 37.103,46.877 L37.103,37.034 C37.103,36.701 37.102,36.411 37.1,36.16 C37.099,35.967 37.098,35.797 37.098,35.646 C37.098,35.632 37.104,35.618 37.113,35.608 C37.123,35.6 37.136,35.594 37.15,35.594 L38.664,35.598 C38.691,35.598 38.713,35.619 38.715,35.646 C38.724,35.817 38.724,35.889 38.722,36.078 C38.722,36.148 38.721,36.233 38.72,36.346 C39.027,35.721 39.637,35.452 40.723,35.452 C42.35,35.452 43.401,37.131 43.401,39.73 C43.401,42.328 42.44,43.817 40.766,43.817 C39.846,43.817 39.237,43.703 38.935,43.146 L38.935,46.877 C38.935,46.905 38.912,46.929 38.883,46.929 L38.883,46.929 Z" id="Fill-27" fill="#FFFFFF" sketch:type="MSShapeGroup"></path>
            <path d="M51.765,41.642 C52.056,41.766 52.796,42.272 53.639,42.272 C54.292,42.272 54.801,42.101 54.801,41.481 C54.801,41.172 54.656,40.878 54.002,40.475 L52.953,39.805 C52.197,39.324 51.678,38.976 51.678,37.867 C51.678,36.588 52.68,35.504 54.263,35.504 C55.222,35.504 55.962,35.767 56.137,35.829 L56.035,37.315 C55.585,37.13 55.106,36.959 54.452,36.959 C53.726,36.959 53.421,37.254 53.421,37.733 C53.421,38.167 53.64,38.335 54.162,38.691 L55.404,39.285 C56.381,39.857 56.646,40.653 56.646,41.373 C56.646,42.845 55.587,43.83 53.961,43.83 C53.031,43.83 52.056,43.495 51.678,43.34 L51.765,41.642" id="Fill-28" fill="#FFFFFF" sketch:type="MSShapeGroup"></path>
            <path d="M51.731,43.306 C51.994,43.411 52.983,43.779 53.961,43.779 C55.561,43.779 56.595,42.835 56.595,41.373 C56.595,40.49 56.186,39.803 55.377,39.329 L54.14,38.738 C53.604,38.373 53.37,38.194 53.37,37.733 C53.37,37.357 53.558,36.908 54.452,36.908 C55.093,36.908 55.565,37.068 55.989,37.241 L56.083,35.864 C55.348,35.609 54.69,35.555 54.263,35.555 C52.795,35.555 51.73,36.527 51.73,37.867 C51.73,38.967 52.254,39.3 52.98,39.761 L54.03,40.432 C54.614,40.791 54.852,41.096 54.852,41.481 C54.852,42.048 54.455,42.322 53.639,42.322 C52.956,42.322 52.341,41.998 51.973,41.804 C51.914,41.773 51.859,41.744 51.813,41.721 L51.731,43.306 L51.731,43.306 Z M53.961,43.882 C52.916,43.882 51.86,43.471 51.659,43.388 C51.639,43.379 51.626,43.359 51.627,43.338 L51.714,41.64 C51.715,41.623 51.724,41.607 51.738,41.599 C51.752,41.59 51.77,41.588 51.785,41.595 C51.847,41.621 51.928,41.663 52.021,41.713 C52.38,41.902 52.981,42.22 53.639,42.22 C54.396,42.22 54.749,41.985 54.749,41.481 C54.749,41.19 54.618,40.915 53.975,40.519 L52.925,39.848 C52.2,39.387 51.627,39.022 51.627,37.867 C51.627,36.468 52.735,35.452 54.263,35.452 C54.705,35.452 55.391,35.509 56.154,35.78 C56.176,35.788 56.19,35.81 56.188,35.832 L56.086,37.319 C56.085,37.336 56.076,37.351 56.063,37.359 C56.048,37.368 56.031,37.369 56.016,37.363 C55.584,37.185 55.108,37.011 54.452,37.011 C53.793,37.011 53.473,37.247 53.473,37.733 C53.473,38.143 53.68,38.301 54.191,38.649 L55.426,39.238 C56.271,39.733 56.698,40.451 56.698,41.373 C56.698,42.873 55.598,43.882 53.961,43.882 L53.961,43.882 Z" id="Fill-29" fill="#FFFFFF" sketch:type="MSShapeGroup"></path>
            <path d="M47.65,42.315 C48.612,42.315 49.152,41.452 49.152,39.81 C49.152,37.912 48.682,36.955 47.678,36.955 C46.66,36.955 46.312,38.111 46.312,39.658 C46.312,41.254 46.702,42.315 47.65,42.315 L47.65,42.315 Z M44.583,37.034 C44.583,36.444 44.578,35.993 44.578,35.646 L46.092,35.649 C46.106,35.906 46.097,35.938 46.097,36.495 L46.139,36.495 C46.418,35.794 47.037,35.504 48.151,35.504 C49.936,35.504 50.778,37.449 50.778,39.73 C50.778,42.409 49.741,43.766 48.194,43.766 C47.162,43.766 46.59,43.61 46.339,42.973 L46.312,42.973 L46.312,46.877 L44.583,46.877 L44.583,37.034 L44.583,37.034 Z" id="Fill-30" fill="#FFFFFF" sketch:type="MSShapeGroup"></path>
            <path d="M47.678,37.006 C46.805,37.006 46.363,37.898 46.363,39.658 C46.363,40.847 46.586,42.263 47.65,42.263 C48.585,42.263 49.101,41.392 49.101,39.81 C49.101,37.923 48.635,37.006 47.678,37.006 L47.678,37.006 Z M47.65,42.366 C46.741,42.366 46.26,41.43 46.26,39.658 C46.26,37.83 46.737,36.903 47.678,36.903 C48.705,36.903 49.204,37.854 49.204,39.81 C49.204,41.458 48.652,42.366 47.65,42.366 L47.65,42.366 Z M44.634,46.826 L46.26,46.826 L46.26,42.973 C46.26,42.944 46.283,42.921 46.312,42.921 L46.339,42.921 C46.36,42.921 46.379,42.935 46.387,42.954 C46.608,43.516 47.081,43.715 48.194,43.715 C49.803,43.715 50.727,42.263 50.727,39.73 C50.727,37.804 50.052,35.555 48.151,35.555 C47.042,35.555 46.454,35.842 46.187,36.515 C46.179,36.534 46.16,36.547 46.139,36.547 L46.097,36.547 C46.069,36.547 46.046,36.523 46.046,36.495 C46.046,36.305 46.047,36.176 46.047,36.077 C46.049,35.909 46.049,35.835 46.043,35.7 L44.63,35.696 C44.63,35.835 44.631,35.988 44.631,36.159 C44.633,36.411 44.634,36.7 44.634,37.034 L44.634,46.826 L44.634,46.826 Z M46.312,46.929 L44.583,46.929 C44.554,46.929 44.531,46.905 44.531,46.877 L44.531,37.034 C44.531,36.701 44.53,36.411 44.528,36.16 C44.527,35.967 44.527,35.797 44.527,35.646 C44.527,35.632 44.532,35.618 44.542,35.608 C44.551,35.6 44.564,35.594 44.578,35.594 L46.092,35.598 C46.119,35.598 46.142,35.619 46.143,35.646 C46.152,35.817 46.152,35.889 46.15,36.078 C46.15,36.148 46.149,36.233 46.149,36.346 C46.456,35.721 47.065,35.452 48.151,35.452 C49.778,35.452 50.83,37.131 50.83,39.73 C50.83,42.328 49.869,43.817 48.194,43.817 C47.274,43.817 46.666,43.703 46.363,43.146 L46.363,46.877 C46.363,46.905 46.34,46.929 46.312,46.929 L46.312,46.929 Z" id="Fill-31" fill="#FFFFFF" sketch:type="MSShapeGroup"></path>
            <path d="M134.851,52.2 C128.946,56.557 120.386,58.875 113.015,58.875 C102.685,58.875 93.382,55.057 86.342,48.7 C85.79,48.201 86.283,47.519 86.946,47.905 C94.542,52.325 103.935,54.986 113.635,54.986 C120.18,54.986 127.373,53.628 133.992,50.822 C134.99,50.398 135.827,51.48 134.851,52.2" id="Fill-32" fill="#EC9030" sketch:type="MSShapeGroup"></path>
            <path d="M137.308,49.396 C136.552,48.428 132.315,48.937 130.412,49.165 C129.835,49.234 129.746,48.73 130.266,48.365 C133.646,45.992 139.184,46.677 139.827,47.472 C140.476,48.273 139.657,53.826 136.489,56.476 C136.003,56.884 135.539,56.666 135.755,56.127 C136.468,54.349 138.063,50.362 137.308,49.396" id="Fill-33" fill="#EC9030" sketch:type="MSShapeGroup"></path>
            <path d="M130.547,31.596 L130.547,29.289 C130.548,28.938 130.813,28.705 131.131,28.705 L141.469,28.704 C141.8,28.704 142.065,28.945 142.065,29.287 L142.065,31.265 C142.063,31.597 141.783,32.031 141.286,32.716 L135.932,40.363 C137.919,40.316 140.022,40.614 141.829,41.629 C142.235,41.857 142.345,42.197 142.376,42.529 L142.376,44.99 C142.376,45.33 142.006,45.723 141.616,45.519 C138.434,43.852 134.211,43.668 130.692,45.537 C130.333,45.73 129.957,45.343 129.957,45.004 L129.957,42.663 C129.957,42.289 129.964,41.649 130.341,41.079 L136.546,32.178 L131.144,32.177 C130.813,32.177 130.549,31.94 130.547,31.596" id="Fill-34" fill="#FFFFFF" sketch:type="MSShapeGroup"></path>
            <path d="M92.835,46.003 L89.69,46.003 C89.391,45.983 89.151,45.759 89.128,45.472 L89.13,29.33 C89.13,29.005 89.401,28.748 89.736,28.748 L92.665,28.747 C92.972,28.763 93.218,28.995 93.238,29.289 L93.238,31.396 L93.296,31.396 C94.06,29.358 95.498,28.407 97.436,28.407 C99.402,28.407 100.636,29.358 101.517,31.396 C102.28,29.358 104.012,28.407 105.862,28.407 C107.184,28.407 108.622,28.951 109.502,30.174 C110.5,31.532 110.295,33.503 110.295,35.235 L110.293,45.422 C110.293,45.745 110.021,46.003 109.687,46.003 L106.545,46.003 C106.229,45.983 105.979,45.732 105.979,45.422 L105.979,36.866 C105.979,36.186 106.038,34.487 105.891,33.842 C105.656,32.755 104.952,32.45 104.042,32.45 C103.278,32.45 102.485,32.959 102.163,33.774 C101.84,34.591 101.869,35.947 101.869,36.866 L101.869,45.422 C101.869,45.745 101.598,46.003 101.263,46.003 L98.121,46.003 C97.806,45.983 97.556,45.732 97.556,45.422 L97.554,36.866 C97.554,35.065 97.847,32.415 95.616,32.415 C93.355,32.415 93.443,34.997 93.443,36.866 L93.442,45.422 C93.442,45.745 93.17,46.003 92.835,46.003" id="Fill-35" fill="#FFFFFF" sketch:type="MSShapeGroup"></path>
            <path d="M150.994,31.702 C148.675,31.702 148.528,34.861 148.528,36.832 C148.528,38.802 148.499,43.013 150.965,43.013 C153.402,43.013 153.52,39.617 153.52,37.545 C153.52,36.186 153.461,34.556 153.05,33.265 C152.697,32.144 151.992,31.702 150.994,31.702 L150.994,31.702 Z M150.965,28.407 C155.634,28.407 158.158,32.415 158.158,37.511 C158.158,42.437 155.37,46.344 150.965,46.344 C146.385,46.344 143.89,42.334 143.89,37.342 C143.89,32.313 146.414,28.407 150.965,28.407 L150.965,28.407 Z" id="Fill-36" fill="#FFFFFF" sketch:type="MSShapeGroup"></path>
            <path d="M164.212,46.003 L161.078,46.003 C160.763,45.983 160.514,45.732 160.514,45.422 L160.509,29.275 C160.536,28.979 160.796,28.748 161.113,28.748 L164.031,28.747 C164.305,28.761 164.532,28.949 164.59,29.199 L164.59,31.668 L164.649,31.668 C165.529,29.46 166.763,28.407 168.935,28.407 C170.344,28.407 171.724,28.917 172.604,30.31 C173.427,31.602 173.427,33.774 173.427,35.337 L173.427,45.494 C173.392,45.781 173.135,46.003 172.825,46.003 L169.672,46.003 C169.38,45.983 169.146,45.771 169.11,45.494 L169.11,36.731 C169.11,34.964 169.317,32.382 167.144,32.382 C166.38,32.382 165.675,32.892 165.324,33.673 C164.884,34.657 164.824,35.643 164.824,36.731 L164.824,45.422 C164.819,45.745 164.547,46.003 164.212,46.003" id="Fill-37" fill="#FFFFFF" sketch:type="MSShapeGroup"></path>
            <path d="M125.477,45.962 C125.268,46.149 124.968,46.161 124.733,46.036 C123.688,45.167 123.501,44.767 122.93,43.94 C121.203,45.699 119.98,46.227 117.744,46.227 C115.097,46.227 113.036,44.591 113.036,41.323 C113.036,38.772 114.419,37.034 116.391,36.184 C118.098,35.435 120.481,35.299 122.306,35.093 L122.306,34.686 C122.306,33.937 122.363,33.052 121.923,32.405 C121.54,31.825 120.805,31.588 120.157,31.588 C118.958,31.588 117.892,32.202 117.629,33.477 C117.574,33.759 117.368,34.04 117.083,34.055 L114.034,33.725 C113.776,33.667 113.491,33.46 113.565,33.067 C114.266,29.369 117.605,28.251 120.599,28.251 C122.128,28.251 124.129,28.66 125.335,29.818 C126.866,31.248 126.718,33.154 126.718,35.231 L126.718,40.131 C126.718,41.604 127.331,42.251 127.905,43.047 C128.106,43.332 128.151,43.672 127.895,43.881 C127.253,44.418 126.111,45.411 125.483,45.97 L125.477,45.962 L125.477,45.962 Z M122.306,38.294 C122.306,39.52 122.335,40.54 121.717,41.631 C121.216,42.516 120.422,43.061 119.539,43.061 C118.333,43.061 117.627,42.141 117.627,40.779 C117.627,38.1 120.029,37.613 122.306,37.613 L122.306,38.294 L122.306,38.294 Z" id="Fill-38" fill="#FFFFFF" sketch:type="MSShapeGroup"></path>
            <path d="M84.245,45.962 C84.037,46.149 83.736,46.161 83.502,46.036 C82.457,45.167 82.27,44.767 81.699,43.94 C79.973,45.699 78.749,46.227 76.514,46.227 C73.865,46.227 71.807,44.591 71.807,41.323 C71.807,38.772 73.189,37.034 75.16,36.184 C76.867,35.435 79.25,35.299 81.074,35.093 L81.074,34.686 C81.074,33.937 81.133,33.052 80.692,32.405 C80.309,31.825 79.574,31.588 78.926,31.588 C77.727,31.588 76.66,32.202 76.399,33.477 C76.344,33.759 76.138,34.04 75.852,34.055 L72.804,33.725 C72.546,33.667 72.26,33.46 72.335,33.067 C73.035,29.369 76.374,28.251 79.368,28.251 C80.897,28.251 82.898,28.66 84.105,29.818 C85.635,31.248 85.487,33.154 85.487,35.231 L85.487,40.131 C85.487,41.604 86.1,42.251 86.675,43.047 C86.876,43.332 86.92,43.672 86.664,43.881 C86.022,44.418 84.88,45.411 84.252,45.97 L84.245,45.962 L84.245,45.962 Z M81.074,38.294 C81.074,39.52 81.104,40.54 80.485,41.631 C79.986,42.516 79.191,43.061 78.308,43.061 C77.103,43.061 76.396,42.141 76.396,40.779 C76.396,38.1 78.799,37.613 81.074,37.613 L81.074,38.294 L81.074,38.294 Z" id="Fill-39" fill="#FFFFFF" sketch:type="MSShapeGroup"></path>
            <path d="M74.492,17.287 L77.727,17.287 L76.136,12.837 L76.109,12.837 L74.492,17.287 L74.492,17.287 Z M75.441,11.688 L76.844,11.688 L80.573,21.229 L79.17,21.229 L78.127,18.356 L74.091,18.356 L73.022,21.229 L71.713,21.229 L75.441,11.688 L75.441,11.688 Z" id="Fill-40" fill="#FFFFFF" sketch:type="MSShapeGroup"></path>
            <path d="M83.432,21.229 L82.216,21.229 L79.65,14.321 L80.92,14.321 L82.857,20.08 L82.884,20.08 L84.769,14.321 L85.958,14.321 L83.432,21.229" id="Fill-41" fill="#FFFFFF" sketch:type="MSShapeGroup"></path>
            <path d="M90.608,17.662 C90.168,17.982 89.312,17.996 88.55,18.129 C87.802,18.263 87.161,18.53 87.161,19.372 C87.161,20.121 87.802,20.388 88.497,20.388 C89.994,20.388 90.608,19.452 90.608,18.824 L90.608,17.662 L90.608,17.662 Z M92.453,21.203 C92.252,21.323 91.998,21.39 91.637,21.39 C91.049,21.39 90.675,21.069 90.675,20.321 C90.047,21.056 89.205,21.39 88.243,21.39 C86.987,21.39 85.958,20.829 85.958,19.452 C85.958,17.889 87.121,17.555 88.296,17.328 C89.553,17.087 90.622,17.167 90.622,16.312 C90.622,15.323 89.807,15.163 89.085,15.163 C88.123,15.163 87.415,15.457 87.361,16.472 L86.225,16.472 C86.292,14.762 87.615,14.16 89.152,14.16 C90.395,14.16 91.744,14.441 91.744,16.058 L91.744,19.613 C91.744,20.147 91.744,20.388 92.105,20.388 C92.199,20.388 92.306,20.375 92.453,20.321 L92.453,21.203 L92.453,21.203 Z" id="Fill-42" fill="#FFFFFF" sketch:type="MSShapeGroup"></path>
            <path d="M93.24,14.321 L94.376,14.321 L94.376,21.23 L93.24,21.23 L93.24,14.321 Z M93.24,11.688 L94.376,11.688 L94.376,13.078 L93.24,13.078 L93.24,11.688 Z" id="Fill-43" fill="#FFFFFF" sketch:type="MSShapeGroup"></path>
            <path d="M95.939,11.688 L97.075,11.688 L97.075,21.229 L95.939,21.229 L95.939,11.688 Z" id="Fill-44" fill="#FFFFFF" sketch:type="MSShapeGroup"></path>
            <path d="M102.781,17.662 C102.341,17.982 101.485,17.996 100.724,18.129 C99.976,18.263 99.334,18.53 99.334,19.372 C99.334,20.121 99.976,20.388 100.67,20.388 C102.167,20.388 102.781,19.452 102.781,18.824 L102.781,17.662 L102.781,17.662 Z M104.626,21.203 C104.425,21.323 104.171,21.39 103.811,21.39 C103.223,21.39 102.849,21.069 102.849,20.321 C102.221,21.056 101.378,21.39 100.416,21.39 C99.16,21.39 98.131,20.829 98.131,19.452 C98.131,17.889 99.294,17.555 100.47,17.328 C101.726,17.087 102.795,17.167 102.795,16.312 C102.795,15.323 101.979,15.163 101.258,15.163 C100.296,15.163 99.588,15.457 99.534,16.472 L98.398,16.472 C98.465,14.762 99.788,14.16 101.325,14.16 C102.567,14.16 103.917,14.441 103.917,16.058 L103.917,19.613 C103.917,20.147 103.917,20.388 104.278,20.388 C104.372,20.388 104.479,20.375 104.626,20.321 L104.626,21.203 L104.626,21.203 Z" id="Fill-45" fill="#FFFFFF" sketch:type="MSShapeGroup"></path>
            <path d="M108.595,15.163 C107.071,15.163 106.483,16.472 106.483,17.769 C106.483,19.131 107.098,20.388 108.661,20.388 C110.211,20.388 110.732,19.065 110.732,17.715 C110.732,16.419 110.064,15.163 108.595,15.163 L108.595,15.163 Z M105.387,11.688 L106.522,11.688 L106.522,15.256 L106.55,15.256 C106.924,14.494 107.806,14.16 108.755,14.16 C110.88,14.16 111.936,15.844 111.936,17.795 C111.936,19.746 110.893,21.39 108.781,21.39 C108.073,21.39 107.058,21.123 106.55,20.308 L106.522,20.308 L106.522,21.229 L105.387,21.229 L105.387,11.688 L105.387,11.688 Z" id="Fill-46" fill="#FFFFFF" sketch:type="MSShapeGroup"></path>
            <path d="M112.804,11.688 L113.939,11.688 L113.939,21.229 L112.804,21.229 L112.804,11.688 Z" id="Fill-47" fill="#FFFFFF" sketch:type="MSShapeGroup"></path>
            <path d="M120.166,17.114 C120.113,16.031 119.298,15.163 118.176,15.163 C116.986,15.163 116.277,16.058 116.197,17.114 L120.166,17.114 L120.166,17.114 Z M121.263,19.038 C120.955,20.562 119.859,21.39 118.309,21.39 C116.104,21.39 115.062,19.867 114.995,17.755 C114.995,15.684 116.357,14.16 118.242,14.16 C120.688,14.16 121.437,16.445 121.369,18.116 L116.197,18.116 C116.157,19.318 116.839,20.388 118.349,20.388 C119.284,20.388 119.939,19.933 120.14,19.038 L121.263,19.038 L121.263,19.038 Z" id="Fill-48" fill="#FFFFFF" sketch:type="MSShapeGroup"></path>
            <path d="M130.536,17.662 C130.095,17.982 129.239,17.996 128.478,18.129 C127.729,18.263 127.088,18.53 127.088,19.372 C127.088,20.121 127.729,20.388 128.425,20.388 C129.921,20.388 130.536,19.452 130.536,18.824 L130.536,17.662 L130.536,17.662 Z M132.38,21.203 C132.18,21.323 131.926,21.39 131.565,21.39 C130.978,21.39 130.603,21.069 130.603,20.321 C129.975,21.056 129.133,21.39 128.171,21.39 C126.915,21.39 125.886,20.829 125.886,19.452 C125.886,17.889 127.048,17.555 128.224,17.328 C129.48,17.087 130.55,17.167 130.55,16.312 C130.55,15.323 129.734,15.163 129.013,15.163 C128.051,15.163 127.342,15.457 127.288,16.472 L126.153,16.472 C126.22,14.762 127.542,14.16 129.079,14.16 C130.322,14.16 131.672,14.441 131.672,16.058 L131.672,19.613 C131.672,20.147 131.672,20.388 132.032,20.388 C132.126,20.388 132.233,20.375 132.38,20.321 L132.38,21.203 L132.38,21.203 Z" id="Fill-49" fill="#FFFFFF" sketch:type="MSShapeGroup"></path>
            <path d="M135.013,14.321 L136.389,14.321 L136.389,15.323 L135.013,15.323 L135.013,19.613 C135.013,20.134 135.159,20.228 135.868,20.228 L136.389,20.228 L136.389,21.229 L135.521,21.229 C134.345,21.229 133.877,20.989 133.877,19.72 L133.877,15.323 L132.7,15.323 L132.7,14.321 L133.877,14.321 L133.877,12.249 L135.013,12.249 L135.013,14.321" id="Fill-50" fill="#FFFFFF" sketch:type="MSShapeGroup"></path>
        </g>
    </g>
</svg>