<?xml version="1.0" encoding="UTF-8" standalone="no"?>
<svg width="160px" height="44px" viewBox="0 0 160 44" version="1.1" xmlns="http://www.w3.org/2000/svg" xmlns:xlink="http://www.w3.org/1999/xlink" xmlns:sketch="http://www.bohemiancoding.com/sketch/ns">
    <!-- Generator: Sketch 3.2.2 (9983) - http://www.bohemiancoding.com/sketch -->
    <title>Artboard 1</title>
    <desc>Created with Sketch.</desc>
    <defs></defs>
    <g id="Page-1" stroke="none" stroke-width="1" fill="none" fill-rule="evenodd" sketch:type="MSPage">
        <g id="Artboard-1" sketch:type="MSArtboardGroup">
            <g id="Logo_White" sketch:type="MSLayerGroup">
                <path d="M43.8183099,22.1118644 C43.8183099,34.2298634 34.0387909,44 21.9091549,44 C9.85532921,44 0,34.2298634 0,22.1118644 C0,9.99386546 9.85532921,0.223728814 21.9091549,0.223728814 C34.0387909,0.223728814 43.8183099,9.99386546 43.8183099,22.1118644 Z" id="Shape" fill="#4CD950" sketch:type="MSShapeGroup"></path>
                <g id="Group" transform="translate(8.564968, 9.347458)" fill="#FFFFFF" sketch:type="MSShapeGroup">
                    <path d="M5.30632609,15.1354109 L2.46090485,17.9781022 L1.15354915,10.986618 L5.30632609,15.1354109 Z" id="Shape"></path>
                    <path d="M10.3050391,10.2183231 L5.99845558,14.4439454 L0.769032767,9.14271012 C0.69212949,7.60612018 1.76877536,6.22318924 3.3068409,5.91587125 L5.69084248,5.45489427 L10.3050391,10.2183231 L10.3050391,10.2183231 Z" id="Shape"></path>
                    <path d="M17.3801405,3.30366836 L11.0740718,9.4500281 L6.9212949,5.30123528 L17.3801405,3.30366836 Z" id="Shape"></path>
                    <path d="M24.3783387,6.22318924 L21.0714978,9.5268576 L16.8418176,5.22440578 L19.2258192,2.91952088 L20.5331749,2.68903239 C22.225047,2.3817144 23.8400158,3.45732735 24.1476289,5.14757628 L24.3783387,6.22318924 L24.3783387,6.22318924 Z" id="Shape"></path>
                    <path d="M25.9164042,14.4439454 L21.7636273,10.2951526 L24.6090485,7.45246119 L25.9164042,14.4439454 Z" id="Shape"></path>
                    <path d="M26.2240174,16.2110238 L26.2240174,16.2110238 C26.2240174,17.6707843 25.2242748,18.9768857 23.7631125,19.2842037 L21.3022076,19.7451807 L16.7649143,15.2122404 L21.0714978,10.986618 L26.2240174,16.2110238 L26.2240174,16.2110238 Z" id="Shape"></path>
                    <path d="M11.7662013,21.6659181 L6.6136818,22.6647015 C4.92180971,22.9720195 3.3068409,21.8964066 2.99922779,20.2061577 L2.76851796,19.1305447 L6.07535886,15.8268763 L11.0740718,20.8207936 L11.7662013,21.6659181 L11.7662013,21.6659181 Z" id="Shape"></path>
                    <path d="M20.0717552,20.0524987 L15.1499455,20.9744526 L12.9197505,21.4354296 L11.7662013,20.2061577 L14.457816,17.5171253 L15.9958816,15.9805353 L20.0717552,20.0524987 Z" id="Shape"></path>
                    <path d="M20.302465,10.2183231 L16.0727848,14.5207749 L11.7662013,10.2183231 L16.0727848,5.99270075 L20.302465,10.2183231 Z" id="Shape"></path>
                    <path d="M11.9969112,15.7500468 C11.8431046,15.9805353 11.6123948,16.2110238 11.3047817,16.2878533 L11.2278784,16.2878533 C10.6895555,16.3646828 10.0743292,16.0573648 9.92052269,15.5195583 C9.76671614,14.9049224 10.0743292,14.2902864 10.6895555,14.1366274 L10.7664587,14.1366274 C11.3047817,14.0597979 11.9200079,14.3671159 12.0738144,14.9049224 C12.227621,15.2122404 12.1507177,15.4427289 11.9969112,15.7500468 L11.9969112,15.7500468 Z" id="Shape"></path>
                    <path d="M15.9958816,2.91952088 L14.6885258,3.15000937 C14.457816,2.15122591 13.5349767,1.45976044 12.4583308,1.69024893 L10.3819424,2.07439641 C9.38219976,2.3048849 8.69007027,3.22683886 8.9207801,4.30245182 L7.61342439,4.53294031 C7.30581129,2.76586188 8.38245716,1.07561295 10.1512325,0.768294968 L12.227621,0.384147484 C13.9963964,0.0768294968 15.6882684,1.15244245 15.9958816,2.91952088 L15.9958816,2.91952088 Z" id="Shape"></path>
                </g>
            </g>
            <text id="MAPS.ME" sketch:type="MSTextLayer" font-family="Helvetica Neue" font-size="25" font-weight="normal" letter-spacing="-0.200000018" fill="#1D1F29">
                <tspan x="47" y="30">MAPS.M</tspan>
                <tspan x="144.9" y="30">E</tspan>
            </text>
        </g>
    </g>
</svg>