<svg xmlns="http://www.w3.org/2000/svg" width="146.074" height="33.775"><defs><linearGradient id="a"><stop offset="0" stop-color="#fff"/><stop offset="1" stop-color="#fff" stop-opacity="0"/></linearGradient><filter id="c" x="-.037" width="1.075" y="-.123" height="1.247" color-interpolation-filters="sRGB"><feGaussianBlur stdDeviation="1.393"/></filter><filter id="b" color-interpolation-filters="sRGB"><feGaussianBlur stdDeviation="1.013"/></filter></defs><g fill="#fff" filter="url(#b)" transform="translate(-686.44 -424.78)"><g style="text-align:center;line-height:92.00000167%;-inkscape-font-specification:InkiCE" font-size="40" font-weight="400" letter-spacing="0" word-spacing="0" text-anchor="middle" font-family="InkiCE"><path d="M692.548 431.438c.042-.253.235-.38.58-.38.167 0 .262.075.283.222.675-.24 1.282-.34 1.823-.305.477.098.716.322.716.673 0 .485-.296 1.166-.886 2.043-.744 1.11-1.57 1.665-2.474 1.665-.344 0-.572-.09-.684-.274a7.756 7.756 0 0 0-.21 1.18c.04.19-.1.34-.422.453a.928.928 0 0 1-.295.063c-.113 0-.155-.06-.127-.18.273-1.087.498-1.922.673-2.505.302-.988.618-1.785.948-2.39.007-.055.032-.143.074-.262zm.526.642a14.987 14.987 0 0 0-.937 2.2c.127.225.277.34.453.348.386.02.765-.12 1.137-.42.112-.092.41-.387.895-.885.253-.337.453-.653.6-.948a.524.524 0 0 0 .064-.232c0-.182-.123-.33-.37-.442a3.177 3.177 0 0 0-.262-.01c-.435 0-.962.13-1.58.39zM697.318 431.227c.042-.252.235-.38.58-.38.21 0 .315.075.315.222 0 .09-.046.217-.137.378a3.87 3.87 0 0 1-.116.21c.68-.483 1.3-.704 1.853-.662a.54.54 0 0 1 .17-.032c.343 0 .515.29.515.874 0 .21-.032.456-.095.737.042.33-.088.53-.39.6a.45.45 0 0 1-.158.032c-.12 0-.18-.056-.18-.17 0-.048.015-.114.043-.2.1-.272.137-.525.116-.757-.014-.21-.126-.333-.337-.368-.38 0-.796.182-1.253.547-.175.14-.516.47-1.02.99-.106.37-.194.9-.264 1.59.042.188-.1.34-.42.452a.928.928 0 0 1-.296.063c-.12 0-.165-.06-.137-.18l.59-2.326c.112-.457.294-.91.547-1.36.028-.133.053-.22.074-.263zm1.937-.874c-.646-.56-1.13-.877-1.453-.947-.225-.014-.344-.078-.358-.19.014-.098.035-.2.063-.305.1-.203.204-.305.316-.305.042 0 .098.06.17.18.097.006.274.085.53.236.257.152.522.316.795.49.646-.54 1.173-.796 1.58-.768.12.028.18.085.18.17 0 .07-.03.146-.086.23-.105.162-.217.243-.336.243a.28.28 0 0 1-.127-.032c-.268.162-.692.495-1.275 1zM704.478 430.522h.295l.052.147.263.168.222.6-.19.747-.22.295-.928.464-.968.242h-.453l-.283-.327-.327.347-.19.284-.157.243-.064.327.19.284.262.168.38.116.736-.147.295-.03.4-.032.264-.21.695-.138-.074.17-.442.494-.632.358-.38.084-.357.084-.39.074h-.442l-.685-.21-.22-.285-.253-.464-.064-.222.032-.452.232-.42.147-.286.232-.21.158-.243.38-.43 1-.928.578-.347c.33-.19.632-.295.906-.316zm-.285.642l-.284.126-.906.643-.158.474.052.063 1.19-.306.39-.442.137-.253-.17-.21zM706.784 431.438c.042-.253.235-.38.58-.38.167 0 .262.075.283.222.674-.24 1.28-.34 1.822-.305.476.098.715.322.715.673 0 .485-.295 1.166-.885 2.043-.744 1.11-1.57 1.665-2.474 1.665-.344 0-.572-.09-.685-.274a7.756 7.756 0 0 0-.21 1.18c.043.19-.097.34-.42.453a.928.928 0 0 1-.295.063c-.113 0-.155-.06-.127-.18.274-1.087.5-1.922.674-2.505.302-.988.618-1.785.948-2.39.007-.055.032-.143.074-.262zm.526.642a14.987 14.987 0 0 0-.937 2.2c.126.225.277.34.453.348.386.02.765-.12 1.137-.42.112-.092.41-.387.895-.885.253-.337.453-.653.6-.948a.524.524 0 0 0 .063-.232c0-.182-.12-.33-.367-.442a3.177 3.177 0 0 0-.263-.01c-.436 0-.962.13-1.58.39zM711.575 431.248c.05-.245.245-.368.59-.368.21 0 .315.07.315.21 0 .092-.045.218-.137.38-.4.7-.663 1.242-.79 1.62-.14.422-.25 1.012-.326 1.77.042.19-.098.34-.42.453a.928.928 0 0 1-.296.063c-.118 0-.164-.06-.136-.18l.58-2.316c.105-.42.29-.877.557-1.368.015-.1.037-.186.065-.264zm2.074-2.643c.083.085.104.208.062.37-.105.357-.498.694-1.18 1.01-.448.21-.715.277-.8.2-.028-.028-.03-.07-.01-.126.042-.12.165-.282.37-.486l.715-.726c.112-.12.245-.21.4-.274.196-.084.344-.074.442.03zM713.617 431.227c.05-.252.246-.38.59-.38.21 0 .316.075.316.222 0 .098-.063.256-.19.473-.05.084-.137.242-.263.474l-.242.474c.54-.406 1.207-.81 2-1.21.155-.05.288-.074.4-.074.21 0 .317.09.317.274 0 .028-.044.23-.132.605l-.332 1.417a19.377 19.377 0 0 1-.44 1.505c0 .17-.17.27-.506.306-.225.028-.337-.025-.337-.158 0-.063.028-.148.084-.253.394-1.018.636-1.885.727-2.6-.035-.043-.087-.064-.158-.064-.14 0-.355.084-.643.253a8.6 8.6 0 0 0-1.337.98c-.084.365-.15.82-.2 1.37.042.188-.098.34-.42.452a.928.928 0 0 1-.296.063c-.12 0-.165-.06-.137-.18l.58-2.326c.097-.408.283-.86.557-1.36.014-.098.035-.185.063-.263zM721.82 431.206c-.316.765-.635 1.727-.958 2.885-.534.837-1.327 1.247-2.38 1.233-.835-.09-1.337-.266-1.506-.526-.105-.162-.158-.31-.158-.442 0-.092.02-.18.063-.264.746-.855 1.41-1.368 1.992-1.536.526-.225 1.158-.337 1.895-.337.07-.302.168-.6.295-.895a.366.366 0 0 0-.18-.38c-.21-.097-.515-.097-.915 0-.422.036-.853.243-1.296.622a.378.378 0 0 1-.24.095c-.078 0-.148-.043-.21-.127a.398.398 0 0 1-.096-.232c0-.07.04-.146.116-.23.407-.394.95-.664 1.632-.81.484-.114.91-.12 1.274-.022.4.112.625.435.674.968zm-1.443 1.77a1.835 1.835 0 0 0-.463-.064c-.232 0-.54.08-.927.242-.316.134-.55.262-.7.385-.15.12-.314.327-.49.614-.02.21.032.355.158.432.106.063.267.088.485.074.42.063.758.044 1.01-.058.253-.102.503-.325.748-.67l.127-.483c.042-.162.06-.32.052-.475zM726.19 431.9c.014.184-.102.338-.348.464a.65.65 0 0 1-.263.085c-.078 0-.117-.043-.117-.128a1.63 1.63 0 0 0 .116-.547c0-.316-.092-.5-.275-.548-.667.33-1.204.727-1.61 1.19-.366.42-.706.997-1.022 1.727-.02.28.066.42.263.42.09 0 .207-.027.347-.083.106-.04.748-.36 1.927-.957a.262.262 0 0 1 .116-.032c.098 0 .172.085.22.254.064.23.022.39-.125.474-.996.56-1.807.92-2.43 1.074a1.49 1.49 0 0 1-.35.052c-.42 0-.63-.347-.63-1.042.49-1.818 1.572-3.096 3.242-3.833.204-.092.372-.138.506-.138.126 0 .235.048.326.142.09.095.14.21.148.343.042.14.063.287.063.442 0 .195-.035.41-.105.64zm-.8-2.03c-.647-.563-1.13-.878-1.454-.95-.224-.013-.344-.076-.358-.188.014-.098.035-.2.063-.306.1-.203.205-.305.317-.305.042 0 .1.06.17.18.097.007.274.086.53.237.257.15.522.314.795.49.646-.54 1.173-.797 1.58-.77.12.03.18.085.18.17 0 .07-.03.147-.085.23-.106.163-.218.243-.337.243a.28.28 0 0 1-.127-.03c-.266.16-.69.494-1.274 1zM691 441.147c.042-.253.235-.38.58-.38.21 0 .315.075.315.222 0 .076-.102.304-.305.683l-.148.274c.393-.31.78-.558 1.158-.747.155-.05.288-.074.4-.074.21 0 .316.09.316.274 0 .14-.045.344-.136.61v.042a8.29 8.29 0 0 1 1.284-.852c.155-.05.288-.074.4-.074.218 0 .327.09.327.274 0 .014-.045.217-.136.61-.33 1.397-.59 2.37-.78 2.917 0 .168-.168.27-.505.305-.225.028-.338-.02-.338-.147 0-.07.032-.158.095-.263.386-1.04.628-1.906.727-2.6a.17.17 0 0 0-.137-.064c-.176 0-.544.235-1.106.705-.16.68-.36 1.37-.6 2.064 0 .168-.168.27-.504.305-.225.028-.337-.02-.337-.147 0-.07.03-.158.093-.263.386-1.053.625-1.92.716-2.6a.17.17 0 0 0-.138-.064c-.19 0-.617.288-1.284.863-.126.366-.232.945-.316 1.74.042.188-.098.34-.42.45a.928.928 0 0 1-.296.064c-.12 0-.165-.06-.137-.18l.59-2.326c.104-.428.287-.88.546-1.358.007-.056.032-.144.074-.263zM700.466 441.126c-.316.765-.635 1.727-.958 2.885-.534.836-1.327 1.247-2.38 1.233-.835-.09-1.337-.267-1.506-.527-.105-.16-.157-.308-.157-.442 0-.09.02-.18.063-.263.744-.855 1.407-1.368 1.99-1.536.526-.225 1.158-.337 1.895-.337.07-.302.17-.6.295-.895a.366.366 0 0 0-.18-.38c-.21-.098-.515-.098-.915 0-.42.036-.853.243-1.295.622a.378.378 0 0 1-.242.095c-.078 0-.148-.044-.21-.128a.398.398 0 0 1-.096-.23c0-.072.04-.15.116-.233.407-.394.95-.664 1.632-.812.484-.112.91-.12 1.274-.02.4.11.625.434.674.968zm-1.443 1.77a1.835 1.835 0 0 0-.463-.064c-.23 0-.54.08-.926.242-.316.133-.55.26-.7.384-.152.123-.315.328-.49.616-.02.21.03.355.158.432.105.063.266.088.484.074.42.063.758.043 1.01-.058.254-.102.503-.325.748-.67l.127-.483c.043-.163.06-.32.053-.475zM702.088 441.357c.042-.252.235-.38.58-.38.167 0 .262.075.283.223.675-.24 1.282-.34 1.823-.306.477.098.716.323.716.674 0 .484-.296 1.165-.886 2.043-.744 1.11-1.57 1.664-2.474 1.664-.344 0-.572-.09-.685-.273a7.756 7.756 0 0 0-.21 1.18c.042.19-.1.34-.422.453a.928.928 0 0 1-.294.063c-.114 0-.156-.06-.128-.18.274-1.087.5-1.922.674-2.505.302-.99.618-1.786.948-2.39.007-.055.03-.143.074-.263zm.526.643a14.987 14.987 0 0 0-.937 2.2c.126.225.277.34.453.348.386.02.765-.12 1.137-.42.112-.093.41-.387.895-.886.253-.337.453-.653.6-.947a.524.524 0 0 0 .063-.232c0-.183-.123-.33-.368-.442a3.177 3.177 0 0 0-.264-.01c-.435 0-.96.13-1.58.39zM708.363 441.178c.14-.014.274-.02.4-.02.68 0 1.127.196 1.337.59.134.252.2.55.2.894 0 .295-.05.625-.147.99-.267.526-.702.937-1.306 1.232a4.008 4.008 0 0 1-2.17.38c-.658-.057-.988-.363-.988-.917 0-.063.002-.134.01-.21.477-1.454 1.364-2.433 2.663-2.938zm-.137.748c-.856.33-1.44.965-1.748 1.906a1.36 1.36 0 0 0-.01.168c0 .344.217.534.653.57.085.006.17.01.253.01.43 0 .815-.085 1.16-.253.392-.19.676-.46.85-.81a2.57 2.57 0 0 0 .096-.654c0-.64-.324-.958-.97-.958-.09 0-.186.007-.284.02zM710.806 440.957c.007-.287.168-.417.484-.39.295.022.453.187.474.496.028.512.035.916.02 1.21-.02.345-.073.762-.157 1.254.372-.38.73-.857 1.074-1.432.015-.02.307-.544.875-1.57.084-.154.2-.23.348-.23.084 0 .168.027.252.083.148.1.222.207.222.327 0 .07-.022.137-.064.2-.61.954-1.54 2.26-2.79 3.917-.007.35-.16.505-.463.463-.253-.035-.38-.105-.38-.21a.17.17 0 0 1 .022-.074c.14-1.214.21-2.123.21-2.726 0-.478-.042-.917-.126-1.317zM717.345 443.958a8.68 8.68 0 0 1-1.17.695l-1.073.527c-.16.056-.298.084-.41.084-.204 0-.306-.088-.306-.263 0-.027.044-.234.132-.62l.33-1.464c.135-.52.282-1.007.444-1.464-.007-.154.157-.252.494-.295.225-.028.337.02.337.148a.584.584 0 0 1-.084.253c-.394 1.038-.636 1.91-.727 2.61.035.05.094.075.18.075.14 0 .364-.074.672-.222.485-.23.948-.53 1.39-.894.07-.336.113-.638.127-.905.014-.266-.02-.452-.106-.557-.007-.33.144-.58.453-.748a.504.504 0 0 1 .22-.073c.148 0 .214.133.2.4.035.112.053.256.053.43 0 .156-.014.335-.042.538-.16 1.166-.512 2.39-1.052 3.675-.337.793-.97 1.19-1.895 1.19-.534 0-1.138-.14-1.81-.42-.233-.156-.35-.292-.35-.412 0-.077.047-.145.138-.205.092-.06.18-.09.264-.09.127 0 .242.064.348.19.526.21.968.312 1.326.305.35-.007.737-.18 1.16-.516.216-.31.47-.965.757-1.97zm1.22-5.18c.085.084.106.207.064.368-.106.358-.5.695-1.18 1.01-.45.212-.716.278-.8.2-.028-.027-.032-.07-.01-.125.04-.118.164-.28.368-.484l.716-.726c.112-.12.246-.21.4-.274.196-.084.344-.074.442.032zM722.862 441.82c.014.183-.102.338-.347.464a.65.65 0 0 1-.263.084c-.078 0-.116-.042-.116-.126a1.63 1.63 0 0 0 .116-.548c0-.315-.092-.498-.274-.547-.667.33-1.204.726-1.61 1.19-.366.42-.707.997-1.023 1.727-.02.28.067.42.264.42.09 0 .206-.027.346-.083.105-.042.748-.36 1.927-.958a.262.262 0 0 1 .116-.03c.097 0 .17.083.22.25.063.233.02.39-.126.475-.997.562-1.808.92-2.433 1.074a1.49 1.49 0 0 1-.346.054c-.42 0-.632-.348-.632-1.042.49-1.82 1.572-3.096 3.243-3.833.204-.092.372-.138.506-.138.127 0 .236.047.327.142.09.095.14.21.147.342.042.14.063.288.064.442 0 .197-.036.41-.106.643zM724.958 439.936c.042-.253.235-.38.58-.38.21 0 .315.075.315.222 0 .063-.144.372-.432.927-.062.126-.15.305-.262.537.54-.197 1.028-.295 1.463-.295.107 0 .208.003.307.01a.667.667 0 0 1 .19-.03c.343 0 .505.367.483 1.104-.02.872-.48 1.946-1.38 3.223-.083.155-.17.232-.262.232-.183 0-.274-.123-.274-.368 0-.113.028-.246.084-.4.407-.464.744-1.05 1.01-1.76.12-.315.18-.603.18-.862 0-.246-.112-.387-.337-.422-.518-.035-1.122.088-1.81.37-.386.968-.62 1.873-.705 2.716.042.188-.1.34-.42.45a.928.928 0 0 1-.296.064c-.12 0-.166-.06-.138-.18.245-.974.474-1.806.684-2.494.302-1.004.618-1.804.948-2.4.014-.043.038-.13.074-.264zM695.633 450.877c.007-.288.168-.418.484-.39.295.02.453.186.474.495.03.513.036.916.022 1.21-.02.345-.073.763-.158 1.254.372-.38.73-.856 1.074-1.432.014-.02.306-.544.874-1.57.084-.153.2-.23.348-.23.084 0 .168.028.252.084.148.098.222.207.222.326 0 .07-.022.137-.064.2-.61.955-1.54 2.26-2.79 3.917-.007.352-.16.507-.463.465-.253-.036-.38-.106-.38-.21a.17.17 0 0 1 .022-.075c.14-1.214.21-2.123.21-2.727 0-.477-.043-.916-.127-1.316zM700.403 451.067c.042-.253.235-.38.58-.38.21 0 .315.074.315.222 0 .09-.046.216-.137.378a3.868 3.868 0 0 1-.115.21c.68-.484 1.3-.705 1.853-.663a.54.54 0 0 1 .17-.032c.343 0 .515.292.515.874 0 .21-.032.457-.095.737.042.33-.088.53-.39.6a.45.45 0 0 1-.158.032c-.12 0-.18-.056-.18-.168 0-.05.015-.116.044-.2.098-.274.136-.527.115-.76-.015-.21-.127-.332-.338-.367-.38 0-.796.183-1.253.548-.176.14-.517.47-1.022.99-.105.372-.193.902-.263 1.59.042.19-.098.34-.42.453a.928.928 0 0 1-.296.064c-.12 0-.166-.06-.138-.18l.59-2.326c.112-.456.294-.91.547-1.358.027-.134.052-.22.073-.263zM708.363 450.382c.246.063.37.162.37.295 0 .035-.015.08-.043.137-.106.203-.26.298-.464.284a1.56 1.56 0 0 0-.516-.084c-.245 0-.502.045-.768.137-.492.17-.843.4-1.053.696-.198.19-.282.34-.254.452.028.1.13.12.305.064.233-.078.717-.22 1.454-.432l.074-.02c.274-.078.54-.113.8-.106.422-.043.72.07.895.337a.928.928 0 0 1 .095.853c-.435.843-1.112 1.51-2.032 2-.407.127-.804.19-1.19.19-.196 0-.404-.02-.62-.063-.612-.12-1.086-.312-1.423-.58-.147-.118-.22-.23-.22-.336 0-.056.017-.105.052-.147.105-.133.263-.18.474-.137.504.38 1.027.57 1.568.57.308 0 .656-.065 1.042-.19.82-.464 1.32-.92 1.495-1.37a.518.518 0 0 0 .042-.19c0-.182-.13-.273-.39-.273-.19 0-.65.098-1.38.295-.672.182-1.118.274-1.336.274-.4 0-.6-.17-.6-.506 0-.12.043-.26.127-.42.61-1.187 1.562-1.78 2.854-1.78.21 0 .426.017.643.052zM711.964 448.887c.035-.133.095-.2.18-.2.112 0 .227.063.347.19.12.126.18.245.18.357 0 .12-.06.243-.18.37-.16.287-.308.582-.442.883a2.57 2.57 0 0 1 .232-.01c.35 0 .677.08.98.242.168.02.252.16.252.42-.007.267-.123.393-.347.38a1.596 1.596 0 0 0-.97-.327 2.04 2.04 0 0 0-.452.053c-.05.112-.344 1.003-.884 2.674a.677.677 0 0 0-.044.2c0 .197.162.277.485.242.127.007.29-.035.485-.126.274-.126.428-.197.463-.21.176 0 .26.105.253.315-.006.226-.07.384-.188.475-.787.24-1.302.35-1.548.337a.72.72 0 0 1-.58-.326.937.937 0 0 1-.168-.653c.176-.562.442-1.408.8-2.538-.126.077-.308.2-.547.37a.187.187 0 0 1-.085.02c-.134 0-.2-.123-.2-.37 0-.125.042-.24.126-.346a5.618 5.618 0 0 1 1.022-.57 11.38 11.38 0 0 1 .832-1.853zM717.587 450.36h.295l.052.148.264.17.22.6-.19.747-.22.295-.926.463-.97.242h-.452l-.284-.326-.327.346-.19.284-.158.243-.063.326.188.283.263.17.38.115.738-.148.294-.03.4-.033.264-.21.695-.138-.073.168-.442.495-.632.358-.38.085-.357.084-.39.073h-.442l-.684-.21-.22-.285-.254-.463-.063-.22.03-.454.233-.42.147-.285.232-.21.158-.242.38-.432 1-.926.578-.347c.33-.19.633-.295.907-.316zm-.284.643l-.285.127-.905.642-.158.474.053.063 1.19-.306.39-.443.136-.25-.17-.212zM718.566 450.877c.007-.288.17-.418.485-.39.295.02.453.186.474.495.028.513.035.916.02 1.21-.02.345-.072.763-.157 1.254.373-.38.73-.856 1.074-1.432.016-.02.307-.544.875-1.57.085-.153.2-.23.348-.23.084 0 .168.028.253.084.147.098.22.207.22.326 0 .07-.02.137-.062.2-.61.955-1.54 2.26-2.79 3.917-.008.352-.162.507-.464.465-.253-.036-.38-.106-.38-.21a.17.17 0 0 1 .022-.075c.14-1.214.21-2.123.21-2.727 0-.477-.042-.916-.126-1.316z"/></g><g font-weight="400" color="#000" font-family="Sans"><path style="text-indent:0;text-align:start;line-height:normal;text-transform:none;block-progression:tb;-inkscape-font-specification:Sans" d="M778.338 440.153s-6.126 3.148-13.618 5.675c-7.492 2.527-16.346 4.508-21.997 1.918l.393-.858c5.132 2.352 13.887.543 21.302-1.958 7.415-2.5 13.492-5.62 13.492-5.62l.428.843z" overflow="visible" enable-background="accumulate"/><path d="M776.548 446.11a.453.453 0 0 0-.623-.595l2.34-6.21a.453.453 0 1 0 .826.29l-2.324 6.243a.453.453 0 0 0-.218.27z" style="text-indent:0;text-align:start;line-height:normal;text-transform:none;block-progression:tb;-inkscape-font-specification:Sans" overflow="visible" enable-background="accumulate"/><path d="M778.697 439.68a.453.453 0 0 0-.254-.03l-6.41-1.722a.453.453 0 1 0 .228-.872l6.428 1.753a.453.453 0 0 0 .01.87z" style="text-indent:0;text-align:start;line-height:normal;text-transform:none;block-progression:tb;-inkscape-font-specification:Sans" overflow="visible" enable-background="accumulate"/></g></g><g fill="#fff" filter="url(#c)" transform="translate(-686.44 -424.78)"><g style="text-align:center;line-height:92.00000167%;-inkscape-font-specification:InkiCE" font-size="40" font-weight="400" letter-spacing="0" word-spacing="0" text-anchor="middle" font-family="InkiCE"><path d="M692.548 431.438c.042-.253.235-.38.58-.38.167 0 .262.075.283.222.675-.24 1.282-.34 1.823-.305.477.098.716.322.716.673 0 .485-.296 1.166-.886 2.043-.744 1.11-1.57 1.665-2.474 1.665-.344 0-.572-.09-.684-.274a7.756 7.756 0 0 0-.21 1.18c.04.19-.1.34-.422.453a.928.928 0 0 1-.295.063c-.113 0-.155-.06-.127-.18.273-1.087.498-1.922.673-2.505.302-.988.618-1.785.948-2.39.007-.055.032-.143.074-.262zm.526.642a14.987 14.987 0 0 0-.937 2.2c.127.225.277.34.453.348.386.02.765-.12 1.137-.42.112-.092.41-.387.895-.885.253-.337.453-.653.6-.948a.524.524 0 0 0 .064-.232c0-.182-.123-.33-.37-.442a3.177 3.177 0 0 0-.262-.01c-.435 0-.962.13-1.58.39zM697.318 431.227c.042-.252.235-.38.58-.38.21 0 .315.075.315.222 0 .09-.046.217-.137.378a3.87 3.87 0 0 1-.116.21c.68-.483 1.3-.704 1.853-.662a.54.54 0 0 1 .17-.032c.343 0 .515.29.515.874 0 .21-.032.456-.095.737.042.33-.088.53-.39.6a.45.45 0 0 1-.158.032c-.12 0-.18-.056-.18-.17 0-.048.015-.114.043-.2.1-.272.137-.525.116-.757-.014-.21-.126-.333-.337-.368-.38 0-.796.182-1.253.547-.175.14-.516.47-1.02.99-.106.37-.194.9-.264 1.59.042.188-.1.34-.42.452a.928.928 0 0 1-.296.063c-.12 0-.165-.06-.137-.18l.59-2.326c.112-.457.294-.91.547-1.36.028-.133.053-.22.074-.263zm1.937-.874c-.646-.56-1.13-.877-1.453-.947-.225-.014-.344-.078-.358-.19.014-.098.035-.2.063-.305.1-.203.204-.305.316-.305.042 0 .098.06.17.18.097.006.274.085.53.236.257.152.522.316.795.49.646-.54 1.173-.796 1.58-.768.12.028.18.085.18.17 0 .07-.03.146-.086.23-.105.162-.217.243-.336.243a.28.28 0 0 1-.127-.032c-.268.162-.692.495-1.275 1zM704.478 430.522h.295l.052.147.263.168.222.6-.19.747-.22.295-.928.464-.968.242h-.453l-.283-.327-.327.347-.19.284-.157.243-.064.327.19.284.262.168.38.116.736-.147.295-.03.4-.032.264-.21.695-.138-.074.17-.442.494-.632.358-.38.084-.357.084-.39.074h-.442l-.685-.21-.22-.285-.253-.464-.064-.222.032-.452.232-.42.147-.286.232-.21.158-.243.38-.43 1-.928.578-.347c.33-.19.632-.295.906-.316zm-.285.642l-.284.126-.906.643-.158.474.052.063 1.19-.306.39-.442.137-.253-.17-.21zM706.784 431.438c.042-.253.235-.38.58-.38.167 0 .262.075.283.222.674-.24 1.28-.34 1.822-.305.476.098.715.322.715.673 0 .485-.295 1.166-.885 2.043-.744 1.11-1.57 1.665-2.474 1.665-.344 0-.572-.09-.685-.274a7.756 7.756 0 0 0-.21 1.18c.043.19-.097.34-.42.453a.928.928 0 0 1-.295.063c-.113 0-.155-.06-.127-.18.274-1.087.5-1.922.674-2.505.302-.988.618-1.785.948-2.39.007-.055.032-.143.074-.262zm.526.642a14.987 14.987 0 0 0-.937 2.2c.126.225.277.34.453.348.386.02.765-.12 1.137-.42.112-.092.41-.387.895-.885.253-.337.453-.653.6-.948a.524.524 0 0 0 .063-.232c0-.182-.12-.33-.367-.442a3.177 3.177 0 0 0-.263-.01c-.436 0-.962.13-1.58.39zM711.575 431.248c.05-.245.245-.368.59-.368.21 0 .315.07.315.21 0 .092-.045.218-.137.38-.4.7-.663 1.242-.79 1.62-.14.422-.25 1.012-.326 1.77.042.19-.098.34-.42.453a.928.928 0 0 1-.296.063c-.118 0-.164-.06-.136-.18l.58-2.316c.105-.42.29-.877.557-1.368.015-.1.037-.186.065-.264zm2.074-2.643c.083.085.104.208.062.37-.105.357-.498.694-1.18 1.01-.448.21-.715.277-.8.2-.028-.028-.03-.07-.01-.126.042-.12.165-.282.37-.486l.715-.726c.112-.12.245-.21.4-.274.196-.084.344-.074.442.03zM713.617 431.227c.05-.252.246-.38.59-.38.21 0 .316.075.316.222 0 .098-.063.256-.19.473-.05.084-.137.242-.263.474l-.242.474c.54-.406 1.207-.81 2-1.21.155-.05.288-.074.4-.074.21 0 .317.09.317.274 0 .028-.044.23-.132.605l-.332 1.417a19.377 19.377 0 0 1-.44 1.505c0 .17-.17.27-.506.306-.225.028-.337-.025-.337-.158 0-.063.028-.148.084-.253.394-1.018.636-1.885.727-2.6-.035-.043-.087-.064-.158-.064-.14 0-.355.084-.643.253a8.6 8.6 0 0 0-1.337.98c-.084.365-.15.82-.2 1.37.042.188-.098.34-.42.452a.928.928 0 0 1-.296.063c-.12 0-.165-.06-.137-.18l.58-2.326c.097-.408.283-.86.557-1.36.014-.098.035-.185.063-.263zM721.82 431.206c-.316.765-.635 1.727-.958 2.885-.534.837-1.327 1.247-2.38 1.233-.835-.09-1.337-.266-1.506-.526-.105-.162-.158-.31-.158-.442 0-.092.02-.18.063-.264.746-.855 1.41-1.368 1.992-1.536.526-.225 1.158-.337 1.895-.337.07-.302.168-.6.295-.895a.366.366 0 0 0-.18-.38c-.21-.097-.515-.097-.915 0-.422.036-.853.243-1.296.622a.378.378 0 0 1-.24.095c-.078 0-.148-.043-.21-.127a.398.398 0 0 1-.096-.232c0-.07.04-.146.116-.23.407-.394.95-.664 1.632-.81.484-.114.91-.12 1.274-.022.4.112.625.435.674.968zm-1.443 1.77a1.835 1.835 0 0 0-.463-.064c-.232 0-.54.08-.927.242-.316.134-.55.262-.7.385-.15.12-.314.327-.49.614-.02.21.032.355.158.432.106.063.267.088.485.074.42.063.758.044 1.01-.058.253-.102.503-.325.748-.67l.127-.483c.042-.162.06-.32.052-.475zM726.19 431.9c.014.184-.102.338-.348.464a.65.65 0 0 1-.263.085c-.078 0-.117-.043-.117-.128a1.63 1.63 0 0 0 .116-.547c0-.316-.092-.5-.275-.548-.667.33-1.204.727-1.61 1.19-.366.42-.706.997-1.022 1.727-.02.28.066.42.263.42.09 0 .207-.027.347-.083.106-.04.748-.36 1.927-.957a.262.262 0 0 1 .116-.032c.098 0 .172.085.22.254.064.23.022.39-.125.474-.996.56-1.807.92-2.43 1.074a1.49 1.49 0 0 1-.35.052c-.42 0-.63-.347-.63-1.042.49-1.818 1.572-3.096 3.242-3.833.204-.092.372-.138.506-.138.126 0 .235.048.326.142.09.095.14.21.148.343.042.14.063.287.063.442 0 .195-.035.41-.105.64zm-.8-2.03c-.647-.563-1.13-.878-1.454-.95-.224-.013-.344-.076-.358-.188.014-.098.035-.2.063-.306.1-.203.205-.305.317-.305.042 0 .1.06.17.18.097.007.274.086.53.237.257.15.522.314.795.49.646-.54 1.173-.797 1.58-.77.12.03.18.085.18.17 0 .07-.03.147-.085.23-.106.163-.218.243-.337.243a.28.28 0 0 1-.127-.03c-.266.16-.69.494-1.274 1zM691 441.147c.042-.253.235-.38.58-.38.21 0 .315.075.315.222 0 .076-.102.304-.305.683l-.148.274c.393-.31.78-.558 1.158-.747.155-.05.288-.074.4-.074.21 0 .316.09.316.274 0 .14-.045.344-.136.61v.042a8.29 8.29 0 0 1 1.284-.852c.155-.05.288-.074.4-.074.218 0 .327.09.327.274 0 .014-.045.217-.136.61-.33 1.397-.59 2.37-.78 2.917 0 .168-.168.27-.505.305-.225.028-.338-.02-.338-.147 0-.07.032-.158.095-.263.386-1.04.628-1.906.727-2.6a.17.17 0 0 0-.137-.064c-.176 0-.544.235-1.106.705-.16.68-.36 1.37-.6 2.064 0 .168-.168.27-.504.305-.225.028-.337-.02-.337-.147 0-.07.03-.158.093-.263.386-1.053.625-1.92.716-2.6a.17.17 0 0 0-.138-.064c-.19 0-.617.288-1.284.863-.126.366-.232.945-.316 1.74.042.188-.098.34-.42.45a.928.928 0 0 1-.296.064c-.12 0-.165-.06-.137-.18l.59-2.326c.104-.428.287-.88.546-1.358.007-.056.032-.144.074-.263zM700.466 441.126c-.316.765-.635 1.727-.958 2.885-.534.836-1.327 1.247-2.38 1.233-.835-.09-1.337-.267-1.506-.527-.105-.16-.157-.308-.157-.442 0-.09.02-.18.063-.263.744-.855 1.407-1.368 1.99-1.536.526-.225 1.158-.337 1.895-.337.07-.302.17-.6.295-.895a.366.366 0 0 0-.18-.38c-.21-.098-.515-.098-.915 0-.42.036-.853.243-1.295.622a.378.378 0 0 1-.242.095c-.078 0-.148-.044-.21-.128a.398.398 0 0 1-.096-.23c0-.072.04-.15.116-.233.407-.394.95-.664 1.632-.812.484-.112.91-.12 1.274-.02.4.11.625.434.674.968zm-1.443 1.77a1.835 1.835 0 0 0-.463-.064c-.23 0-.54.08-.926.242-.316.133-.55.26-.7.384-.152.123-.315.328-.49.616-.02.21.03.355.158.432.105.063.266.088.484.074.42.063.758.043 1.01-.058.254-.102.503-.325.748-.67l.127-.483c.043-.163.06-.32.053-.475zM702.088 441.357c.042-.252.235-.38.58-.38.167 0 .262.075.283.223.675-.24 1.282-.34 1.823-.306.477.098.716.323.716.674 0 .484-.296 1.165-.886 2.043-.744 1.11-1.57 1.664-2.474 1.664-.344 0-.572-.09-.685-.273a7.756 7.756 0 0 0-.21 1.18c.042.19-.1.34-.422.453a.928.928 0 0 1-.294.063c-.114 0-.156-.06-.128-.18.274-1.087.5-1.922.674-2.505.302-.99.618-1.786.948-2.39.007-.055.03-.143.074-.263zm.526.643a14.987 14.987 0 0 0-.937 2.2c.126.225.277.34.453.348.386.02.765-.12 1.137-.42.112-.093.41-.387.895-.886.253-.337.453-.653.6-.947a.524.524 0 0 0 .063-.232c0-.183-.123-.33-.368-.442a3.177 3.177 0 0 0-.264-.01c-.435 0-.96.13-1.58.39zM708.363 441.178c.14-.014.274-.02.4-.02.68 0 1.127.196 1.337.59.134.252.2.55.2.894 0 .295-.05.625-.147.99-.267.526-.702.937-1.306 1.232a4.008 4.008 0 0 1-2.17.38c-.658-.057-.988-.363-.988-.917 0-.063.002-.134.01-.21.477-1.454 1.364-2.433 2.663-2.938zm-.137.748c-.856.33-1.44.965-1.748 1.906a1.36 1.36 0 0 0-.01.168c0 .344.217.534.653.57.085.006.17.01.253.01.43 0 .815-.085 1.16-.253.392-.19.676-.46.85-.81a2.57 2.57 0 0 0 .096-.654c0-.64-.324-.958-.97-.958-.09 0-.186.007-.284.02zM710.806 440.957c.007-.287.168-.417.484-.39.295.022.453.187.474.496.028.512.035.916.02 1.21-.02.345-.073.762-.157 1.254.372-.38.73-.857 1.074-1.432.015-.02.307-.544.875-1.57.084-.154.2-.23.348-.23.084 0 .168.027.252.083.148.1.222.207.222.327 0 .07-.022.137-.064.2-.61.954-1.54 2.26-2.79 3.917-.007.35-.16.505-.463.463-.253-.035-.38-.105-.38-.21a.17.17 0 0 1 .022-.074c.14-1.214.21-2.123.21-2.726 0-.478-.042-.917-.126-1.317zM717.345 443.958a8.68 8.68 0 0 1-1.17.695l-1.073.527c-.16.056-.298.084-.41.084-.204 0-.306-.088-.306-.263 0-.027.044-.234.132-.62l.33-1.464c.135-.52.282-1.007.444-1.464-.007-.154.157-.252.494-.295.225-.028.337.02.337.148a.584.584 0 0 1-.084.253c-.394 1.038-.636 1.91-.727 2.61.035.05.094.075.18.075.14 0 .364-.074.672-.222.485-.23.948-.53 1.39-.894.07-.336.113-.638.127-.905.014-.266-.02-.452-.106-.557-.007-.33.144-.58.453-.748a.504.504 0 0 1 .22-.073c.148 0 .214.133.2.4.035.112.053.256.053.43 0 .156-.014.335-.042.538-.16 1.166-.512 2.39-1.052 3.675-.337.793-.97 1.19-1.895 1.19-.534 0-1.138-.14-1.81-.42-.233-.156-.35-.292-.35-.412 0-.077.047-.145.138-.205.092-.06.18-.09.264-.09.127 0 .242.064.348.19.526.21.968.312 1.326.305.35-.007.737-.18 1.16-.516.216-.31.47-.965.757-1.97zm1.22-5.18c.085.084.106.207.064.368-.106.358-.5.695-1.18 1.01-.45.212-.716.278-.8.2-.028-.027-.032-.07-.01-.125.04-.118.164-.28.368-.484l.716-.726c.112-.12.246-.21.4-.274.196-.084.344-.074.442.032zM722.862 441.82c.014.183-.102.338-.347.464a.65.65 0 0 1-.263.084c-.078 0-.116-.042-.116-.126a1.63 1.63 0 0 0 .116-.548c0-.315-.092-.498-.274-.547-.667.33-1.204.726-1.61 1.19-.366.42-.707.997-1.023 1.727-.02.28.067.42.264.42.09 0 .206-.027.346-.083.105-.042.748-.36 1.927-.958a.262.262 0 0 1 .116-.03c.097 0 .17.083.22.25.063.233.02.39-.126.475-.997.562-1.808.92-2.433 1.074a1.49 1.49 0 0 1-.346.054c-.42 0-.632-.348-.632-1.042.49-1.82 1.572-3.096 3.243-3.833.204-.092.372-.138.506-.138.127 0 .236.047.327.142.09.095.14.21.147.342.042.14.063.288.064.442 0 .197-.036.41-.106.643zM724.958 439.936c.042-.253.235-.38.58-.38.21 0 .315.075.315.222 0 .063-.144.372-.432.927-.062.126-.15.305-.262.537.54-.197 1.028-.295 1.463-.295.107 0 .208.003.307.01a.667.667 0 0 1 .19-.03c.343 0 .505.367.483 1.104-.02.872-.48 1.946-1.38 3.223-.083.155-.17.232-.262.232-.183 0-.274-.123-.274-.368 0-.113.028-.246.084-.4.407-.464.744-1.05 1.01-1.76.12-.315.18-.603.18-.862 0-.246-.112-.387-.337-.422-.518-.035-1.122.088-1.81.37-.386.968-.62 1.873-.705 2.716.042.188-.1.34-.42.45a.928.928 0 0 1-.296.064c-.12 0-.166-.06-.138-.18.245-.974.474-1.806.684-2.494.302-1.004.618-1.804.948-2.4.014-.043.038-.13.074-.264zM695.633 450.877c.007-.288.168-.418.484-.39.295.02.453.186.474.495.03.513.036.916.022 1.21-.02.345-.073.763-.158 1.254.372-.38.73-.856 1.074-1.432.014-.02.306-.544.874-1.57.084-.153.2-.23.348-.23.084 0 .168.028.252.084.148.098.222.207.222.326 0 .07-.022.137-.064.2-.61.955-1.54 2.26-2.79 3.917-.007.352-.16.507-.463.465-.253-.036-.38-.106-.38-.21a.17.17 0 0 1 .022-.075c.14-1.214.21-2.123.21-2.727 0-.477-.043-.916-.127-1.316zM700.403 451.067c.042-.253.235-.38.58-.38.21 0 .315.074.315.222 0 .09-.046.216-.137.378a3.868 3.868 0 0 1-.115.21c.68-.484 1.3-.705 1.853-.663a.54.54 0 0 1 .17-.032c.343 0 .515.292.515.874 0 .21-.032.457-.095.737.042.33-.088.53-.39.6a.45.45 0 0 1-.158.032c-.12 0-.18-.056-.18-.168 0-.05.015-.116.044-.2.098-.274.136-.527.115-.76-.015-.21-.127-.332-.338-.367-.38 0-.796.183-1.253.548-.176.14-.517.47-1.022.99-.105.372-.193.902-.263 1.59.042.19-.098.34-.42.453a.928.928 0 0 1-.296.064c-.12 0-.166-.06-.138-.18l.59-2.326c.112-.456.294-.91.547-1.358.027-.134.052-.22.073-.263zM708.363 450.382c.246.063.37.162.37.295 0 .035-.015.08-.043.137-.106.203-.26.298-.464.284a1.56 1.56 0 0 0-.516-.084c-.245 0-.502.045-.768.137-.492.17-.843.4-1.053.696-.198.19-.282.34-.254.452.028.1.13.12.305.064.233-.078.717-.22 1.454-.432l.074-.02c.274-.078.54-.113.8-.106.422-.043.72.07.895.337a.928.928 0 0 1 .095.853c-.435.843-1.112 1.51-2.032 2-.407.127-.804.19-1.19.19-.196 0-.404-.02-.62-.063-.612-.12-1.086-.312-1.423-.58-.147-.118-.22-.23-.22-.336 0-.056.017-.105.052-.147.105-.133.263-.18.474-.137.504.38 1.027.57 1.568.57.308 0 .656-.065 1.042-.19.82-.464 1.32-.92 1.495-1.37a.518.518 0 0 0 .042-.19c0-.182-.13-.273-.39-.273-.19 0-.65.098-1.38.295-.672.182-1.118.274-1.336.274-.4 0-.6-.17-.6-.506 0-.12.043-.26.127-.42.61-1.187 1.562-1.78 2.854-1.78.21 0 .426.017.643.052zM711.964 448.887c.035-.133.095-.2.18-.2.112 0 .227.063.347.19.12.126.18.245.18.357 0 .12-.06.243-.18.37-.16.287-.308.582-.442.883a2.57 2.57 0 0 1 .232-.01c.35 0 .677.08.98.242.168.02.252.16.252.42-.007.267-.123.393-.347.38a1.596 1.596 0 0 0-.97-.327 2.04 2.04 0 0 0-.452.053c-.05.112-.344 1.003-.884 2.674a.677.677 0 0 0-.044.2c0 .197.162.277.485.242.127.007.29-.035.485-.126.274-.126.428-.197.463-.21.176 0 .26.105.253.315-.006.226-.07.384-.188.475-.787.24-1.302.35-1.548.337a.72.72 0 0 1-.58-.326.937.937 0 0 1-.168-.653c.176-.562.442-1.408.8-2.538-.126.077-.308.2-.547.37a.187.187 0 0 1-.085.02c-.134 0-.2-.123-.2-.37 0-.125.042-.24.126-.346a5.618 5.618 0 0 1 1.022-.57 11.38 11.38 0 0 1 .832-1.853zM717.587 450.36h.295l.052.148.264.17.22.6-.19.747-.22.295-.926.463-.97.242h-.452l-.284-.326-.327.346-.19.284-.158.243-.063.326.188.283.263.17.38.115.738-.148.294-.03.4-.033.264-.21.695-.138-.073.168-.442.495-.632.358-.38.085-.357.084-.39.073h-.442l-.684-.21-.22-.285-.254-.463-.063-.22.03-.454.233-.42.147-.285.232-.21.158-.242.38-.432 1-.926.578-.347c.33-.19.633-.295.907-.316zm-.284.643l-.285.127-.905.642-.158.474.053.063 1.19-.306.39-.443.136-.25-.17-.212zM718.566 450.877c.007-.288.17-.418.485-.39.295.02.453.186.474.495.028.513.035.916.02 1.21-.02.345-.072.763-.157 1.254.373-.38.73-.856 1.074-1.432.016-.02.307-.544.875-1.57.085-.153.2-.23.348-.23.084 0 .168.028.253.084.147.098.22.207.22.326 0 .07-.02.137-.062.2-.61.955-1.54 2.26-2.79 3.917-.008.352-.162.507-.464.465-.253-.036-.38-.106-.38-.21a.17.17 0 0 1 .022-.075c.14-1.214.21-2.123.21-2.727 0-.477-.042-.916-.126-1.316z"/></g><g font-weight="400" color="#000" font-family="Sans"><path style="text-indent:0;text-align:start;line-height:normal;text-transform:none;block-progression:tb;-inkscape-font-specification:Sans" d="M778.338 440.153s-6.126 3.148-13.618 5.675c-7.492 2.527-16.346 4.508-21.997 1.918l.393-.858c5.132 2.352 13.887.543 21.302-1.958 7.415-2.5 13.492-5.62 13.492-5.62l.428.843z" overflow="visible" enable-background="accumulate"/><path d="M776.548 446.11a.453.453 0 0 0-.623-.595l2.34-6.21a.453.453 0 1 0 .826.29l-2.324 6.243a.453.453 0 0 0-.218.27z" style="text-indent:0;text-align:start;line-height:normal;text-transform:none;block-progression:tb;-inkscape-font-specification:Sans" overflow="visible" enable-background="accumulate"/><path d="M778.697 439.68a.453.453 0 0 0-.254-.03l-6.41-1.722a.453.453 0 1 0 .228-.872l6.428 1.753a.453.453 0 0 0 .01.87z" style="text-indent:0;text-align:start;line-height:normal;text-transform:none;block-progression:tb;-inkscape-font-specification:Sans" overflow="visible" enable-background="accumulate"/></g></g><g style="text-align:center;line-height:92.00000167%;-inkscape-font-specification:InkiCE" font-size="40" font-weight="400" letter-spacing="0" word-spacing="0" text-anchor="middle" font-family="InkiCE"><path d="M6.11 6.66c.04-.253.234-.38.578-.38.17 0 .264.074.285.22.673-.237 1.28-.34 1.82-.304.48.098.717.323.717.674 0 .484-.295 1.165-.884 2.043-.744 1.11-1.57 1.663-2.475 1.663-.343 0-.57-.09-.683-.274a7.756 7.756 0 0 0-.21 1.18c.04.19-.1.34-.422.452a.928.928 0 0 1-.295.064c-.112 0-.154-.06-.126-.18.274-1.087.498-1.923.674-2.505.302-.99.618-1.787.947-2.39.007-.057.032-.144.074-.264zm.526.642a14.987 14.987 0 0 0-.937 2.2c.125.225.276.34.45.348.387.02.766-.12 1.138-.422.113-.09.41-.386.895-.884.253-.337.453-.653.6-.948a.524.524 0 0 0 .064-.23c0-.184-.123-.33-.37-.444a3.177 3.177 0 0 0-.262-.01c-.435 0-.962.13-1.58.39zM10.88 6.45c.04-.254.234-.38.578-.38.21 0 .316.073.316.22 0 .092-.046.218-.137.38a3.87 3.87 0 0 1-.116.21c.682-.484 1.3-.705 1.855-.663a.54.54 0 0 1 .168-.032c.344 0 .516.292.516.874 0 .21-.033.456-.096.736.042.33-.088.53-.39.6a.45.45 0 0 1-.157.032c-.12 0-.18-.056-.18-.168 0-.05.015-.116.043-.2.098-.274.137-.527.116-.758-.014-.21-.127-.334-.337-.37-.38 0-.798.184-1.254.55-.176.14-.516.47-1.022.988-.105.372-.193.902-.263 1.59.043.19-.097.34-.42.453a.928.928 0 0 1-.295.063c-.12 0-.165-.06-.137-.18l.59-2.326c.112-.456.295-.91.547-1.358.028-.134.053-.22.074-.263zm1.936-.875c-.645-.562-1.13-.878-1.453-.948-.224-.014-.344-.077-.358-.19.014-.098.035-.2.064-.305.097-.203.202-.305.314-.305.043 0 .1.06.17.18.097.006.274.085.53.236.257.15.522.314.796.49.645-.54 1.172-.797 1.58-.77.118.03.178.085.178.17 0 .07-.028.147-.084.23-.105.162-.218.243-.337.243a.28.28 0 0 1-.126-.032c-.266.162-.69.495-1.274 1zM18.04 5.743h.294l.053.148.263.17.22.6-.19.747-.22.295-.926.463-.97.242h-.452l-.284-.326-.327.348-.188.284-.158.243-.063.326.19.285.264.17.38.115.736-.148.295-.03.4-.033.263-.212.695-.136-.074.168-.443.495-.632.358-.38.084-.357.084-.39.075h-.442l-.684-.21-.22-.285-.254-.463-.063-.22.03-.454.233-.42.147-.285.232-.21.158-.243.38-.432 1-.926.58-.348c.328-.19.63-.296.904-.317zm-.285.642l-.285.127-.905.642-.158.474.053.063 1.19-.304.39-.442.136-.253-.17-.21zM20.345 6.66c.042-.253.235-.38.58-.38.168 0 .262.074.283.22.674-.237 1.282-.34 1.822-.304.477.098.716.323.716.674 0 .484-.295 1.165-.884 2.043-.745 1.11-1.57 1.663-2.475 1.663-.344 0-.572-.09-.684-.274a7.756 7.756 0 0 0-.21 1.18c.04.19-.1.34-.422.452a.928.928 0 0 1-.294.064c-.112 0-.154-.06-.126-.18.274-1.087.498-1.923.674-2.505.302-.99.617-1.787.947-2.39.008-.057.033-.144.075-.264zm.527.642a14.987 14.987 0 0 0-.938 2.2c.127.225.278.34.453.348.386.02.765-.12 1.137-.422.113-.09.41-.386.895-.884.252-.337.452-.653.6-.948a.524.524 0 0 0 .063-.23c0-.184-.123-.33-.37-.444a3.177 3.177 0 0 0-.262-.01c-.434 0-.96.13-1.578.39zM25.136 6.47c.05-.246.246-.37.59-.37.21 0 .315.07.315.212 0 .09-.044.217-.135.38-.4.7-.664 1.24-.79 1.62-.14.422-.25 1.01-.327 1.77.043.19-.098.34-.42.452a.928.928 0 0 1-.296.063c-.12 0-.164-.06-.136-.18l.58-2.315c.104-.42.29-.878.557-1.37.014-.097.035-.185.063-.262zm2.074-2.643c.084.084.106.207.063.368-.105.358-.498.695-1.18 1.01-.448.212-.715.278-.8.2-.027-.027-.03-.07-.01-.125.042-.12.165-.28.37-.484l.715-.727c.112-.12.246-.212.4-.275.197-.084.344-.073.442.032zM27.18 6.45c.048-.254.244-.38.588-.38.21 0 .316.073.316.22 0 .1-.063.257-.19.475-.048.084-.136.242-.263.473l-.24.474c.54-.407 1.207-.81 2-1.21.154-.05.288-.074.4-.074.21 0 .316.09.316.273 0 .03-.044.23-.132.607l-.33 1.416a19.377 19.377 0 0 1-.444 1.506c0 .167-.168.27-.505.304-.225.028-.337-.025-.337-.158 0-.063.028-.147.084-.253.393-1.017.635-1.884.727-2.6-.036-.042-.09-.064-.16-.064-.14 0-.354.084-.642.252a8.6 8.6 0 0 0-1.337.98c-.083.364-.15.82-.2 1.368.043.19-.097.34-.42.453a.928.928 0 0 1-.295.063c-.12 0-.165-.06-.137-.18l.58-2.326c.098-.407.284-.86.557-1.358.015-.098.036-.186.064-.263zM35.38 6.428c-.315.765-.634 1.726-.957 2.885-.534.835-1.327 1.246-2.38 1.232-.835-.092-1.337-.267-1.505-.527-.106-.16-.158-.31-.158-.442 0-.09.02-.18.063-.263.744-.857 1.407-1.37 1.99-1.538.526-.224 1.158-.337 1.895-.337.07-.3.17-.6.295-.895a.366.366 0 0 0-.18-.38c-.21-.097-.515-.097-.915 0-.42.036-.853.244-1.295.623a.378.378 0 0 1-.242.094c-.077 0-.147-.042-.21-.126a.398.398 0 0 1-.095-.232c0-.07.04-.147.116-.23.408-.394.952-.665 1.633-.812.485-.112.91-.12 1.274-.02.4.11.625.434.674.968zm-1.44 1.77a1.835 1.835 0 0 0-.465-.065c-.23 0-.54.08-.926.243-.317.133-.55.26-.702.384-.15.123-.314.328-.49.616-.02.21.032.354.16.432.104.063.266.087.483.073.422.064.76.045 1.012-.057.253-.1.502-.324.748-.668l.126-.485c.042-.16.06-.32.053-.473zM39.75 7.123c.015.182-.1.336-.347.463a.65.65 0 0 1-.263.084c-.077 0-.116-.042-.116-.126a1.63 1.63 0 0 0 .116-.548c0-.316-.09-.498-.274-.547-.666.33-1.203.725-1.61 1.188-.366.422-.706.997-1.022 1.727-.02.28.067.42.263.42.092 0 .207-.027.348-.083.105-.042.747-.36 1.927-.958a.262.262 0 0 1 .115-.032c.1 0 .172.085.222.253.062.232.02.39-.128.474-.997.56-1.807.92-2.432 1.073a1.49 1.49 0 0 1-.348.053c-.42 0-.63-.348-.63-1.043.49-1.818 1.57-3.095 3.242-3.832.203-.09.372-.136.505-.136.126 0 .234.047.326.142.09.095.14.21.147.342.042.14.063.288.063.442 0 .197-.035.41-.105.643zm-.8-2.033c-.645-.56-1.13-.877-1.452-.947-.225-.014-.344-.078-.358-.19.014-.098.035-.2.063-.305.098-.204.203-.306.316-.306.04 0 .097.06.167.18.098.006.276.085.532.236.255.15.52.314.794.49.646-.54 1.172-.797 1.58-.77.12.03.178.086.178.17 0 .07-.028.147-.084.23-.105.163-.218.244-.337.244a.28.28 0 0 1-.125-.032c-.267.16-.692.495-1.274 1zM4.56 16.368c.043-.252.237-.38.58-.38.21 0 .316.075.316.222 0 .078-.1.306-.305.685l-.146.273c.393-.308.78-.558 1.158-.747.154-.048.288-.073.4-.073.21 0 .316.09.316.274 0 .14-.046.345-.137.612v.042a8.29 8.29 0 0 1 1.286-.853c.154-.048.287-.073.4-.073.217 0 .326.09.326.274 0 .015-.046.22-.137.612-.33 1.397-.59 2.37-.78 2.916 0 .17-.167.27-.504.306-.224.028-.336-.02-.336-.148 0-.07.03-.158.094-.263.387-1.04.63-1.906.727-2.6a.17.17 0 0 0-.137-.064c-.175 0-.544.234-1.106.705-.16.68-.36 1.368-.6 2.063 0 .17-.168.27-.505.306-.225.028-.337-.02-.337-.148 0-.07.032-.158.095-.263.386-1.053.624-1.92.716-2.6a.17.17 0 0 0-.136-.064c-.19 0-.618.287-1.285.862-.127.366-.232.945-.317 1.738.042.19-.098.34-.42.453a.928.928 0 0 1-.296.063c-.12 0-.165-.06-.137-.18l.59-2.326c.105-.428.288-.88.548-1.36.007-.055.03-.142.073-.262zM14.027 16.347c-.316.765-.635 1.727-.958 2.885-.534.836-1.328 1.246-2.38 1.232-.836-.09-1.338-.267-1.506-.526-.106-.162-.158-.31-.158-.443 0-.09.02-.18.063-.263.743-.856 1.406-1.37 1.99-1.537.526-.225 1.157-.337 1.894-.337.07-.302.17-.6.295-.895a.366.366 0 0 0-.18-.38c-.21-.097-.516-.097-.916 0-.42.036-.853.243-1.295.622a.378.378 0 0 1-.243.095c-.077 0-.148-.042-.21-.126a.398.398 0 0 1-.095-.232c0-.07.038-.147.115-.232.407-.393.95-.663 1.632-.81.484-.113.908-.12 1.273-.022.4.113.625.436.674.97zm-1.442 1.77a1.835 1.835 0 0 0-.463-.064c-.232 0-.54.08-.927.242-.316.134-.55.262-.7.384-.15.122-.314.328-.49.615-.02.21.032.355.158.432.105.063.267.088.484.074.422.064.76.045 1.01-.057.254-.102.503-.325.75-.67l.125-.483c.042-.16.06-.32.053-.474zM15.65 16.58c.04-.254.234-.38.578-.38.168 0 .263.073.284.22.674-.238 1.28-.34 1.822-.304.477.098.716.322.716.673 0 .484-.295 1.165-.885 2.042-.744 1.11-1.568 1.664-2.474 1.664-.343 0-.57-.09-.683-.274a7.756 7.756 0 0 0-.21 1.18c.04.19-.1.34-.422.452a.928.928 0 0 1-.295.063c-.112 0-.154-.06-.126-.18.273-1.087.498-1.922.674-2.505.3-.99.617-1.786.947-2.39.007-.056.032-.144.074-.263zm.525.64a14.987 14.987 0 0 0-.937 2.202c.127.224.278.34.453.347.387.02.766-.12 1.138-.422.113-.09.41-.386.895-.884.253-.337.453-.653.6-.948a.524.524 0 0 0 .064-.232c0-.182-.123-.33-.37-.442a3.177 3.177 0 0 0-.262-.01c-.435 0-.962.13-1.58.39zM21.924 16.4c.14-.014.274-.02.4-.02.68 0 1.127.195 1.338.588.133.253.2.55.2.895 0 .295-.05.625-.148.99-.266.527-.7.937-1.305 1.232a4.008 4.008 0 0 1-2.17.38c-.66-.057-.99-.362-.99-.917 0-.063.003-.133.01-.21.478-1.453 1.366-2.433 2.664-2.938zm-.136.747c-.857.33-1.44.966-1.748 1.906a1.36 1.36 0 0 0-.01.17c0 .343.217.532.652.567.084.007.168.01.253.01.428 0 .814-.083 1.158-.252.393-.19.677-.46.853-.81a2.57 2.57 0 0 0 .095-.653c0-.64-.322-.96-.968-.96-.09 0-.186.008-.284.022zM24.367 16.18c.007-.29.17-.42.485-.39.294.02.452.185.473.494.03.512.036.916.022 1.21-.022.345-.074.763-.158 1.254.37-.38.73-.856 1.073-1.432.014-.02.305-.544.874-1.57.084-.153.2-.23.347-.23.084 0 .168.027.253.084.147.098.22.207.22.326 0 .07-.02.137-.062.2-.61.955-1.54 2.26-2.79 3.917-.008.35-.162.505-.464.463-.252-.035-.378-.105-.378-.21a.17.17 0 0 1 .02-.074c.14-1.214.212-2.123.212-2.727 0-.477-.042-.916-.127-1.316zM30.906 19.18a8.68 8.68 0 0 1-1.17.695l-1.073.526c-.16.057-.298.085-.41.085-.204 0-.306-.087-.306-.263 0-.028.044-.235.132-.62l.33-1.465c.134-.52.28-1.007.443-1.463-.007-.155.158-.253.495-.295.224-.03.337.02.337.146a.584.584 0 0 1-.085.253c-.393 1.038-.635 1.908-.726 2.61.035.05.095.074.18.074.14 0 .364-.074.673-.22.484-.233.947-.53 1.39-.896.07-.337.112-.64.126-.906.014-.266-.02-.453-.105-.558-.007-.33.144-.58.453-.747a.504.504 0 0 1 .222-.074c.147 0 .214.133.2.4.035.112.052.256.052.432 0 .154-.014.333-.042.537-.16 1.165-.512 2.39-1.053 3.675-.338.793-.97 1.19-1.896 1.19-.534 0-1.137-.14-1.81-.422-.233-.154-.35-.29-.35-.41 0-.078.047-.146.138-.206.092-.06.18-.09.264-.09.126 0 .242.063.347.19.526.21.97.312 1.327.305.35-.007.737-.18 1.158-.516.218-.31.47-.967.758-1.97zM32.128 14c.084.083.105.206.063.368-.105.358-.498.695-1.18 1.01-.448.21-.715.278-.8.2-.027-.028-.03-.07-.01-.126.043-.12.166-.28.37-.484l.715-.727c.112-.118.246-.21.4-.272.197-.085.344-.074.443.03zM36.424 17.042c.014.183-.102.337-.348.463a.65.65 0 0 1-.263.085c-.077 0-.116-.042-.116-.127a1.63 1.63 0 0 0 .116-.547c0-.316-.09-.5-.274-.548-.668.33-1.205.727-1.612 1.19-.365.42-.705.997-1.02 1.727-.022.28.065.42.262.42.09 0 .207-.027.347-.083.106-.042.748-.362 1.927-.958a.262.262 0 0 1 .116-.032c.098 0 .172.084.22.253.064.23.022.39-.125.474-.997.56-1.808.918-2.432 1.073a1.49 1.49 0 0 1-.348.052c-.42 0-.632-.347-.632-1.042.492-1.818 1.573-3.096 3.243-3.833.204-.09.372-.137.506-.137.126 0 .235.048.326.142.092.095.14.21.148.343.042.14.063.287.063.442 0 .196-.036.41-.106.642zM38.52 15.157c.04-.252.234-.38.578-.38.21 0 .316.075.316.222 0 .063-.144.37-.432.926-.063.126-.15.305-.263.537.54-.197 1.027-.295 1.463-.295.105 0 .207.004.305.01a.667.667 0 0 1 .19-.03c.343 0 .505.368.484 1.105-.02.87-.48 1.944-1.38 3.222-.084.154-.172.23-.263.23-.183 0-.275-.12-.275-.367 0-.112.03-.246.085-.4.407-.464.744-1.05 1.01-1.76.12-.315.18-.602.18-.862 0-.246-.113-.386-.337-.42-.52-.036-1.124.086-1.81.367-.388.97-.623 1.875-.707 2.717.042.19-.098.34-.42.453a.928.928 0 0 1-.296.063c-.12 0-.165-.06-.137-.18.246-.975.474-1.807.685-2.495.3-1.002.617-1.803.947-2.4.014-.042.04-.13.074-.263zM9.194 26.098c.007-.287.17-.417.485-.39.294.022.45.187.473.496.028.512.035.916.02 1.21-.02.344-.073.762-.157 1.254.372-.38.73-.857 1.074-1.432.014-.022.305-.545.874-1.57.084-.154.2-.23.347-.23.085 0 .17.027.254.083.147.097.22.206.22.326 0 .07-.02.137-.062.2-.61.954-1.54 2.26-2.79 3.917-.008.35-.162.505-.464.463-.253-.035-.38-.105-.38-.21a.17.17 0 0 1 .022-.074c.14-1.215.21-2.124.21-2.727 0-.478-.04-.917-.126-1.317zM13.964 26.288c.042-.253.235-.38.58-.38.21 0 .315.075.315.222 0 .09-.046.218-.138.38a3.868 3.868 0 0 1-.116.21c.68-.485 1.3-.706 1.854-.664a.54.54 0 0 1 .168-.03c.344 0 .516.29.516.873 0 .21-.032.455-.095.736.04.33-.088.53-.39.6a.45.45 0 0 1-.158.03c-.12 0-.18-.055-.18-.167 0-.05.015-.117.043-.2.098-.275.137-.528.116-.76-.013-.21-.126-.333-.336-.368-.38 0-.797.183-1.253.548-.175.14-.515.47-1.02.99-.106.372-.194.902-.264 1.59.042.19-.098.34-.42.452a.928.928 0 0 1-.296.063c-.12 0-.165-.06-.137-.18l.59-2.326c.112-.457.295-.91.547-1.36.03-.132.053-.22.074-.262zM21.924 25.603c.246.064.37.162.37.295 0 .035-.015.08-.043.137-.104.204-.26.298-.462.284a1.56 1.56 0 0 0-.516-.085c-.246 0-.502.046-.77.137-.49.17-.84.4-1.052.695-.197.19-.28.34-.253.453.028.098.13.12.306.063.23-.077.716-.22 1.453-.432l.073-.02c.273-.077.54-.112.8-.105.42-.042.72.07.895.337a.928.928 0 0 1 .094.853c-.436.842-1.113 1.51-2.033 2-.407.127-.803.19-1.19.19-.196 0-.403-.02-.62-.063-.612-.12-1.085-.313-1.422-.58-.148-.12-.22-.23-.22-.336 0-.057.016-.106.05-.148.107-.133.264-.18.475-.137.505.38 1.028.57 1.57.57.308 0 .655-.063 1.04-.19.823-.463 1.32-.92 1.497-1.368a.518.518 0 0 0 .042-.19c0-.182-.13-.274-.39-.274-.19 0-.65.1-1.38.295-.674.183-1.12.274-1.338.274-.4 0-.6-.17-.6-.506 0-.118.042-.258.127-.42.61-1.186 1.56-1.78 2.852-1.78.21 0 .425.018.642.053zM25.526 24.108c.035-.133.094-.2.18-.2.11 0 .227.063.346.19.12.126.18.245.18.358 0 .12-.06.242-.18.368-.16.288-.31.583-.442.885a2.57 2.57 0 0 1 .23-.012c.352 0 .68.08.98.242.17.02.253.162.253.422-.007.266-.122.393-.347.38a1.596 1.596 0 0 0-.97-.328 2.04 2.04 0 0 0-.452.053c-.05.112-.344 1.004-.884 2.674a.677.677 0 0 0-.042.2c0 .198.16.28.484.244.127.007.288-.036.485-.127.273-.126.428-.196.463-.21.175 0 .26.105.253.316-.007.224-.07.382-.19.473-.786.24-1.302.35-1.548.337a.72.72 0 0 1-.58-.326.937.937 0 0 1-.167-.653c.175-.562.442-1.407.8-2.538-.127.078-.31.2-.548.37a.187.187 0 0 1-.084.02c-.133 0-.2-.123-.2-.37 0-.125.042-.24.126-.346a5.618 5.618 0 0 1 1.022-.57 11.38 11.38 0 0 1 .832-1.852zM31.148 25.582h.295l.053.148.263.168.22.6-.19.748-.22.295-.927.464-.97.242h-.452l-.283-.326-.326.347-.19.285-.157.242-.063.326.19.285.263.168.38.116.736-.15.294-.03.4-.032.263-.21.695-.137-.074.17-.442.494-.632.358-.38.084-.357.085-.39.074h-.442l-.684-.21-.22-.285-.253-.464-.063-.22.032-.454.23-.42.15-.285.23-.21.158-.243.38-.432 1-.926.58-.348c.33-.19.63-.295.904-.316zm-.284.643l-.284.126-.906.643-.158.474.053.063 1.19-.305.388-.442.137-.253-.168-.21zM32.128 26.098c.007-.287.168-.417.484-.39.295.022.453.187.474.496.028.512.035.916.02 1.21-.02.344-.073.762-.157 1.254.37-.38.73-.857 1.073-1.432.014-.022.305-.545.874-1.57.084-.154.2-.23.347-.23.084 0 .17.027.253.083.147.097.22.206.22.326 0 .07-.02.137-.062.2-.61.954-1.54 2.26-2.79 3.917-.007.35-.162.505-.464.463-.25-.035-.378-.105-.378-.21a.17.17 0 0 1 .02-.074c.142-1.215.212-2.124.212-2.727 0-.478-.042-.917-.126-1.317z"/></g><g font-weight="400" color="#000" font-family="Sans"><path d="M91.9 15.375s-6.127 3.147-13.62 5.674c-7.49 2.527-16.344 4.507-21.995 1.917l.393-.857c5.13 2.35 13.887.542 21.302-1.96 7.415-2.5 13.492-5.62 13.492-5.62l.428.845z" style="text-indent:0;text-align:start;line-height:normal;text-transform:none;block-progression:tb;-inkscape-font-specification:Sans" overflow="visible" enable-background="accumulate"/><path style="text-indent:0;text-align:start;line-height:normal;text-transform:none;block-progression:tb;-inkscape-font-specification:Sans" d="M90.11 21.33a.453.453 0 0 0-.624-.594l2.34-6.21a.453.453 0 1 0 .827.29l-2.325 6.244a.453.453 0 0 0-.22.27z" overflow="visible" enable-background="accumulate"/><path style="text-indent:0;text-align:start;line-height:normal;text-transform:none;block-progression:tb;-inkscape-font-specification:Sans" d="M92.258 14.9a.453.453 0 0 0-.254-.03l-6.41-1.72a.453.453 0 1 0 .23-.873l6.425 1.753a.453.453 0 0 0 .008.87z" overflow="visible" enable-background="accumulate"/></g></svg>