<svg xmlns="http://www.w3.org/2000/svg" width="150.949" height="223.26"><defs><linearGradient id="a"><stop offset="0" stop-color="#fff"/><stop offset="1" stop-color="#fff" stop-opacity="0"/></linearGradient><filter id="b" color-interpolation-filters="sRGB"><feGaussianBlur stdDeviation="3.669"/></filter><filter id="c" x="-.202" width="1.404" y="-.121" height="1.242" color-interpolation-filters="sRGB"><feGaussianBlur stdDeviation="11.821"/></filter></defs><g transform="matrix(.76604 0 0 .76604 -526.83 -125.142)" filter="url(#b)"><g style="text-align:center;line-height:92.00000167%;-inkscape-font-specification:InkiCE" font-size="40" font-weight="400" letter-spacing="0" word-spacing="0" text-anchor="middle" font-family="InkiCE"><path d="M726.37 338.245c.157-.937.873-1.406 2.15-1.406.625 0 .976.272 1.054.82 2.5-.886 4.753-1.264 6.758-1.134 1.77.365 2.656 1.198 2.656 2.5 0 1.797-1.093 4.323-3.28 7.578-2.76 4.115-5.82 6.172-9.18 6.172-1.277 0-2.123-.338-2.54-1.015a28.773 28.773 0 0 0-.78 4.376c.155.703-.366 1.263-1.563 1.68-.443.156-.808.234-1.094.234-.416 0-.572-.222-.468-.664 1.016-4.037 1.85-7.136 2.5-9.297 1.12-3.673 2.292-6.63 3.516-8.868.026-.21.117-.534.273-.977zm1.954 2.383c-1.432 2.76-2.59 5.482-3.476 8.164.468.833 1.028 1.263 1.68 1.29 1.432.077 2.838-.444 4.218-1.564.417-.338 1.524-1.432 3.32-3.28.938-1.25 1.68-2.423 2.227-3.516.156-.313.234-.6.234-.86 0-.677-.455-1.224-1.367-1.64-.312-.026-.638-.04-.976-.04-1.615 0-3.568.482-5.86 1.446zM744.066 337.464c.157-.938.873-1.406 2.15-1.406.78 0 1.17.273 1.17.82 0 .338-.17.807-.507 1.406-.105.208-.248.47-.43.78 2.525-1.796 4.817-2.616 6.874-2.46.235-.078.443-.117.625-.117 1.275 0 1.913 1.08 1.913 3.242 0 .78-.117 1.692-.35 2.734.155 1.224-.327 1.966-1.447 2.226a1.674 1.674 0 0 1-.586.118c-.442 0-.664-.21-.664-.625 0-.183.053-.43.157-.743.364-1.015.507-1.953.43-2.812-.053-.78-.47-1.237-1.25-1.367-1.407 0-2.956.678-4.65 2.032-.65.52-1.913 1.745-3.788 3.672-.39 1.38-.716 3.346-.977 5.898.157.703-.364 1.263-1.562 1.68-.443.156-.808.234-1.094.234-.443 0-.612-.22-.508-.664l2.188-8.633c.416-1.693 1.093-3.373 2.03-5.04.105-.494.196-.82.274-.976zm7.188-3.242c-2.396-2.084-4.193-3.256-5.39-3.516-.834-.052-1.277-.286-1.33-.703.053-.365.13-.742.236-1.133.364-.755.755-1.133 1.17-1.133.158 0 .366.222.626.664.365.027 1.023.32 1.973.88.95.56 1.933 1.166 2.948 1.817 2.396-2.006 4.35-2.956 5.86-2.852.442.104.664.313.664.625 0 .26-.104.547-.313.86-.39.598-.808.898-1.25.898a1.04 1.04 0 0 1-.47-.117c-.99.6-2.565 1.837-4.726 3.712zM770.63 334.847h1.093l.195.546.977.625.82 2.227-.703 2.773-.82 1.094-3.438 1.72-3.594.897h-1.68l-1.054-1.212-1.21 1.29-.704 1.054-.586.9-.235 1.21.705 1.054.976.625 1.407.43 2.735-.546 1.093-.117 1.485-.117.976-.782 2.58-.507-.275.626-1.64 1.836-2.343 1.328-1.407.312-1.328.313-1.445.273h-1.64l-2.54-.78-.82-1.056-.937-1.72-.235-.82.117-1.68.86-1.56.547-1.056.858-.78.586-.9 1.406-1.6 3.71-3.438 2.15-1.29c1.223-.703 2.343-1.093 3.36-1.17zm-1.056 2.382l-1.054.468-3.36 2.383-.586 1.76.196.233 4.414-1.133 1.445-1.64.507-.938-.625-.78zM779.184 338.245c.156-.937.872-1.406 2.148-1.406.625 0 .977.272 1.055.82 2.5-.886 4.752-1.264 6.758-1.134 1.77.365 2.656 1.198 2.656 2.5 0 1.797-1.093 4.323-3.28 7.578-2.76 4.115-5.82 6.172-9.18 6.172-1.276 0-2.123-.338-2.54-1.015a28.773 28.773 0 0 0-.78 4.376c.156.703-.365 1.263-1.563 1.68-.443.156-.807.234-1.094.234-.416 0-.573-.222-.468-.664 1.015-4.037 1.848-7.136 2.5-9.297 1.12-3.673 2.29-6.63 3.515-8.868.026-.21.117-.534.274-.977zm1.953 2.383c-1.433 2.76-2.59 5.482-3.477 8.164.47.833 1.03 1.263 1.68 1.29 1.432.077 2.838-.444 4.22-1.564.415-.338 1.522-1.432 3.32-3.28.936-1.25 1.68-2.423 2.225-3.516.157-.313.235-.6.235-.86 0-.677-.456-1.224-1.367-1.64-.313-.026-.638-.04-.977-.04-1.614 0-3.568.482-5.86 1.446zM796.957 337.542c.182-.912.91-1.367 2.188-1.367.78 0 1.17.26 1.17.78 0 .34-.168.808-.506 1.407-1.486 2.604-2.462 4.61-2.93 6.016-.522 1.562-.926 3.75-1.212 6.562.156.703-.365 1.263-1.563 1.68-.442.156-.807.234-1.093.234-.443 0-.612-.22-.508-.664l2.148-8.593c.39-1.563 1.08-3.256 2.07-5.08.053-.363.13-.69.235-.975zm7.695-9.805c.313.313.39.768.235 1.367-.39 1.33-1.85 2.58-4.375 3.75-1.667.782-2.657 1.03-2.97.743-.103-.105-.116-.26-.038-.47.156-.442.612-1.04 1.367-1.796l2.657-2.694c.417-.443.912-.782 1.485-1.016.73-.312 1.276-.273 1.64.117zM804.535 337.464c.182-.938.912-1.406 2.188-1.406.78 0 1.172.273 1.172.82 0 .364-.235.95-.704 1.758-.18.312-.506.898-.975 1.757l-.9 1.758c2.007-1.51 4.48-3.007 7.423-4.49.573-.183 1.068-.274 1.485-.274.78 0 1.172.338 1.172 1.015 0 .105-.163.854-.49 2.247-.324 1.394-.734 3.145-1.23 5.254a71.886 71.886 0 0 1-1.64 5.587c0 .625-.625 1.003-1.875 1.133-.833.104-1.25-.09-1.25-.586 0-.234.104-.547.313-.937 1.458-3.776 2.356-6.993 2.695-9.65-.13-.155-.326-.233-.586-.233-.52 0-1.315.312-2.383.937-1.615.94-3.27 2.15-4.962 3.634-.312 1.354-.56 3.047-.742 5.078.156.703-.364 1.263-1.562 1.68-.443.156-.808.234-1.094.234-.443 0-.612-.22-.508-.664l2.148-8.633c.365-1.51 1.055-3.19 2.07-5.04.053-.364.13-.69.235-.976zM834.965 337.386c-1.172 2.838-2.357 6.406-3.555 10.703-1.98 3.098-4.922 4.62-8.828 4.57-3.1-.34-4.96-.99-5.586-1.954-.39-.6-.586-1.146-.586-1.64 0-.34.078-.665.235-.977 2.76-3.178 5.22-5.08 7.382-5.704 1.953-.834 4.297-1.25 7.032-1.25a19.81 19.81 0 0 1 1.092-3.32c.078-.6-.143-1.068-.664-1.407-.78-.366-1.914-.366-3.398 0-1.563.13-3.164.898-4.805 2.304-.286.234-.586.35-.898.35-.287 0-.547-.155-.782-.467-.234-.313-.35-.6-.35-.86s.142-.547.43-.86c1.51-1.458 3.527-2.46 6.053-3.007 1.797-.417 3.373-.443 4.727-.078 1.484.417 2.318 1.615 2.5 3.594zm-5.352 6.562a6.81 6.81 0 0 0-1.718-.234c-.86 0-2.006.3-3.438.898-1.172.495-2.038.97-2.598 1.426-.56.456-1.166 1.217-1.817 2.285-.078.78.117 1.315.586 1.602.39.234.988.325 1.796.273 1.562.235 2.812.163 3.75-.215.937-.377 1.862-1.204 2.773-2.48l.468-1.797c.156-.6.22-1.185.195-1.758zM851.176 339.964c.052.677-.378 1.25-1.29 1.72-.416.207-.74.31-.976.31-.286 0-.43-.155-.43-.468.287-.78.43-1.458.43-2.03 0-1.173-.338-1.85-1.015-2.032-2.474 1.224-4.467 2.695-5.977 4.414-1.354 1.562-2.617 3.698-3.79 6.406-.077 1.042.248 1.563.977 1.563.34 0 .77-.105 1.29-.313.39-.156 2.773-1.34 7.148-3.555a.973.973 0 0 1 .43-.118c.364 0 .638.313.82.938.234.86.078 1.445-.47 1.758-3.697 2.083-6.705 3.41-9.022 3.984-.52.13-.95.195-1.288.195-1.563 0-2.344-1.29-2.344-3.867 1.823-6.745 5.833-11.484 12.03-14.22.756-.337 1.38-.507 1.876-.507.47 0 .873.176 1.21.528.34.352.522.776.548 1.27a5.68 5.68 0 0 1 .234 1.64c0 .73-.13 1.524-.39 2.384zm-2.97-7.54c-2.395-2.083-4.192-3.254-5.39-3.515-.833-.053-1.276-.287-1.328-.704a9.76 9.76 0 0 1 .235-1.133c.364-.755.755-1.133 1.172-1.133.156 0 .364.222.625.664.364.026 1.022.32 1.972.88s1.934 1.165 2.95 1.816c2.395-2.005 4.348-2.956 5.86-2.852.44.104.663.313.663.625 0 .26-.104.547-.313.86-.39.598-.807.898-1.25.898a1.04 1.04 0 0 1-.468-.116c-.99.6-2.566 1.836-4.727 3.71zM720.63 374.264c.155-.938.87-1.406 2.147-1.406.782 0 1.172.273 1.172.82 0 .286-.378 1.133-1.134 2.54l-.546 1.015c1.458-1.146 2.89-2.07 4.296-2.774.573-.183 1.068-.274 1.485-.274.782 0 1.173.338 1.173 1.015 0 .522-.17 1.277-.508 2.267v.156c1.64-1.302 3.23-2.357 4.765-3.164.573-.183 1.068-.274 1.485-.274.807 0 1.21.338 1.21 1.015 0 .053-.17.81-.507 2.267-1.224 5.182-2.188 8.79-2.89 10.82 0 .625-.626 1.003-1.876 1.133-.833.104-1.25-.078-1.25-.547 0-.26.118-.586.352-.976 1.432-3.855 2.33-7.07 2.695-9.65a.63.63 0 0 0-.51-.233c-.65 0-2.017.872-4.1 2.617a81.386 81.386 0 0 1-2.227 7.657c0 .625-.625 1.003-1.875 1.133-.833.104-1.25-.078-1.25-.547 0-.26.117-.586.352-.976 1.432-3.907 2.318-7.123 2.656-9.65a.63.63 0 0 0-.508-.233c-.703 0-2.29 1.067-4.765 3.203-.47 1.354-.86 3.502-1.172 6.445.157.703-.364 1.263-1.562 1.68-.442.156-.807.234-1.093.234-.443 0-.612-.22-.508-.664l2.187-8.633c.39-1.59 1.068-3.27 2.03-5.04.027-.208.12-.534.275-.976zM755.746 374.186c-1.172 2.838-2.357 6.406-3.555 10.703-1.978 3.098-4.92 4.62-8.827 4.57-3.1-.34-4.96-.99-5.586-1.954-.39-.6-.586-1.146-.586-1.64 0-.34.08-.665.236-.977 2.76-3.178 5.22-5.08 7.383-5.704 1.952-.834 4.295-1.25 7.03-1.25a19.81 19.81 0 0 1 1.094-3.32c.078-.6-.144-1.068-.664-1.407-.782-.366-1.915-.366-3.4 0-1.56.13-3.163.898-4.804 2.304-.286.234-.586.35-.898.35-.287 0-.547-.155-.78-.467-.236-.313-.353-.6-.353-.86s.143-.547.43-.86c1.51-1.458 3.528-2.46 6.055-3.007 1.796-.417 3.372-.443 4.726-.078 1.484.417 2.318 1.614 2.5 3.594zm-5.35 6.562a6.81 6.81 0 0 0-1.72-.234c-.86 0-2.005.3-3.438.898-1.172.495-2.037.97-2.597 1.426-.56.456-1.165 1.217-1.816 2.285-.078.78.117 1.315.586 1.602.39.234.99.325 1.797.273 1.563.234 2.813.163 3.75-.215.938-.377 1.862-1.204 2.773-2.48l.47-1.797c.155-.6.22-1.185.195-1.758zM761.762 375.045c.156-.937.872-1.406 2.148-1.406.625 0 .977.272 1.055.82 2.5-.886 4.752-1.264 6.758-1.134 1.77.365 2.656 1.198 2.656 2.5 0 1.797-1.095 4.323-3.282 7.578-2.76 4.115-5.82 6.172-9.18 6.172-1.276 0-2.122-.338-2.54-1.015a28.772 28.772 0 0 0-.78 4.376c.156.703-.365 1.263-1.563 1.68-.443.156-.807.234-1.094.234-.415 0-.572-.222-.467-.664 1.015-4.037 1.85-7.136 2.5-9.297 1.12-3.673 2.29-6.63 3.515-8.868.026-.21.117-.534.274-.977zm1.953 2.383c-1.432 2.76-2.59 5.482-3.477 8.164.47.833 1.03 1.263 1.68 1.29 1.432.077 2.84-.444 4.22-1.564.415-.338 1.522-1.432 3.32-3.28.937-1.25 1.68-2.423 2.226-3.516.156-.313.234-.6.234-.86 0-.677-.456-1.224-1.367-1.64-.312-.026-.637-.04-.976-.04-1.614 0-3.567.482-5.86 1.446zM785.043 374.38a14.94 14.94 0 0 1 1.484-.077c2.526 0 4.18.73 4.96 2.187.496.938.743 2.045.743 3.32 0 1.094-.182 2.318-.546 3.673-.99 1.953-2.605 3.476-4.844 4.57-2.03.99-4.232 1.484-6.602 1.484-.364 0-.846-.026-1.445-.078-2.448-.21-3.672-1.342-3.672-3.4 0-.234.014-.494.04-.78 1.77-5.39 5.065-9.024 9.883-10.9zm-.508 2.774c-3.177 1.224-5.338 3.58-6.484 7.07-.025.21-.038.417-.038.626 0 1.276.807 1.98 2.422 2.11.312.025.625.038.937.038 1.59 0 3.022-.312 4.298-.937 1.458-.702 2.513-1.705 3.164-3.007.234-.886.352-1.693.352-2.422 0-2.37-1.198-3.554-3.594-3.554-.34 0-.69.026-1.055.078zM794.105 373.56c.026-1.067.625-1.55 1.797-1.445 1.094.078 1.68.69 1.758 1.836.104 1.902.13 3.4.078 4.493-.078 1.276-.273 2.826-.586 4.65 1.38-1.407 2.71-3.178 3.985-5.314.052-.08 1.132-2.02 3.242-5.82.31-.574.74-.86 1.288-.86.312 0 .625.104.937.312.547.365.82.768.82 1.21 0 .262-.077.51-.234.743-2.264 3.542-5.715 8.386-10.35 14.532-.026 1.302-.6 1.875-1.72 1.718-.936-.13-1.405-.39-1.405-.78a.63.63 0 0 1 .078-.274c.52-4.505.78-7.877.78-10.117 0-1.77-.155-3.398-.468-4.882zM818.363 384.693a32.205 32.205 0 0 1-4.336 2.58l-3.984 1.952c-.6.208-1.107.312-1.523.312-.756 0-1.133-.325-1.133-.976 0-.104.162-.872.488-2.304a5581.5 5581.5 0 0 0 1.23-5.43 64.014 64.014 0 0 1 1.64-5.43c-.025-.572.587-.937 1.837-1.093.833-.104 1.25.078 1.25.547 0 .234-.104.547-.312.937-1.46 3.854-2.357 7.084-2.696 9.688.13.182.352.273.664.273.52 0 1.354-.273 2.5-.82a25.13 25.13 0 0 0 5.157-3.32c.26-1.25.416-2.37.468-3.36.052-.99-.078-1.68-.39-2.07-.026-1.224.534-2.15 1.68-2.774.338-.182.61-.273.82-.273.547 0 .794.496.742 1.485.13.417.195.95.195 1.602 0 .573-.052 1.237-.156 1.992-.6 4.322-1.9 8.866-3.906 13.632-1.25 2.943-3.594 4.414-7.032 4.414-1.98 0-4.218-.52-6.718-1.563-.86-.572-1.29-1.08-1.29-1.523 0-.286.17-.54.508-.762.34-.22.664-.332.977-.332.47 0 .898.235 1.29.703 1.952.78 3.593 1.158 4.92 1.132 1.303-.026 2.735-.664 4.298-1.914.808-1.146 1.746-3.58 2.813-7.305zm4.532-19.218c.312.312.39.768.234 1.367-.392 1.328-1.85 2.578-4.376 3.75-1.667.78-2.656 1.03-2.97.742-.103-.104-.116-.26-.038-.47.156-.44.612-1.04 1.367-1.796l2.657-2.695c.416-.443.91-.78 1.484-1.016.73-.312 1.276-.273 1.64.118zM838.832 376.764c.052.677-.378 1.25-1.29 1.72-.416.207-.74.31-.976.31-.286 0-.43-.155-.43-.468.287-.78.43-1.458.43-2.03 0-1.173-.338-1.85-1.015-2.032-2.473 1.224-4.465 2.695-5.976 4.414-1.354 1.562-2.617 3.698-3.79 6.406-.077 1.042.25 1.563.978 1.563.338 0 .768-.105 1.29-.313.39-.156 2.772-1.34 7.147-3.555a.973.973 0 0 1 .43-.118c.363 0 .637.313.82.938.234.86.077 1.445-.47 1.758-3.697 2.083-6.705 3.41-9.023 3.984-.52.13-.95.195-1.29.195-1.562 0-2.343-1.29-2.343-3.867 1.823-6.745 5.834-11.484 12.03-14.22.757-.337 1.382-.507 1.876-.507.47 0 .873.176 1.21.528.34.352.522.776.548 1.27a5.68 5.68 0 0 1 .235 1.64c0 .73-.13 1.524-.39 2.384zM846.605 369.772c.157-.938.873-1.407 2.15-1.407.78 0 1.17.274 1.17.82 0 .235-.533 1.38-1.6 3.438-.235.47-.56 1.133-.977 1.992 2.005-.73 3.815-1.093 5.43-1.093.39 0 .768.013 1.132.04.26-.08.495-.12.703-.12 1.276 0 1.875 1.37 1.797 4.103-.078 3.23-1.784 7.214-5.117 11.953-.313.573-.638.86-.977.86-.677 0-1.015-.456-1.015-1.368 0-.416.105-.91.313-1.484 1.51-1.72 2.76-3.893 3.75-6.523.443-1.172.664-2.24.664-3.204 0-.912-.416-1.433-1.25-1.563-1.927-.13-4.166.325-6.718 1.367-1.434 3.594-2.306 6.953-2.62 10.078.158.703-.363 1.263-1.56 1.68-.444.156-.808.234-1.095.234-.443 0-.612-.22-.508-.664.912-3.62 1.758-6.705 2.54-9.258 1.12-3.724 2.29-6.692 3.515-8.906.052-.156.143-.482.273-.976zM737.816 410.36c.026-1.067.625-1.55 1.797-1.445 1.094.078 1.68.69 1.758 1.836.105 1.902.13 3.4.08 4.493-.08 1.276-.274 2.826-.587 4.65 1.38-1.407 2.71-3.178 3.985-5.314.052-.08 1.132-2.02 3.242-5.82.312-.574.742-.86 1.29-.86.31 0 .624.104.936.312.547.365.82.768.82 1.21 0 .262-.077.51-.234.743-2.265 3.542-5.716 8.386-10.35 14.532-.027 1.302-.6 1.875-1.72 1.718-.938-.13-1.406-.39-1.406-.78a.63.63 0 0 1 .078-.274c.52-4.505.78-7.877.78-10.117 0-1.77-.155-3.398-.468-4.882zM755.512 411.064c.156-.938.872-1.406 2.148-1.406.78 0 1.172.273 1.172.82 0 .338-.17.807-.508 1.406-.104.208-.247.47-.43.78 2.527-1.796 4.818-2.616 6.876-2.46.234-.078.442-.117.625-.117 1.276 0 1.914 1.08 1.914 3.242 0 .78-.12 1.692-.353 2.734.156 1.224-.326 1.966-1.445 2.226a1.674 1.674 0 0 1-.586.118c-.443 0-.664-.21-.664-.625 0-.183.052-.43.156-.743.365-1.015.508-1.953.43-2.812-.052-.78-.47-1.237-1.25-1.367-1.407 0-2.956.678-4.65 2.032-.65.52-1.913 1.745-3.788 3.672-.39 1.38-.716 3.346-.976 5.898.156.703-.365 1.263-1.563 1.68-.442.156-.806.234-1.093.234-.442 0-.612-.22-.507-.664l2.187-8.633c.417-1.693 1.094-3.373 2.03-5.04.105-.494.197-.82.275-.976zM785.043 408.525c.91.234 1.367.6 1.367 1.093 0 .13-.052.3-.156.508-.39.755-.964 1.107-1.72 1.055a5.787 5.787 0 0 0-1.913-.312c-.91 0-1.86.17-2.85.508-1.823.625-3.125 1.485-3.907 2.578-.73.704-1.04 1.263-.937 1.68.104.365.482.443 1.133.234.858-.286 2.655-.82 5.39-1.6l.273-.08a9.915 9.915 0 0 1 2.968-.39c1.564-.156 2.67.26 3.322 1.25.39.6.586 1.237.586 1.914 0 .417-.08.834-.235 1.25-1.614 3.125-4.127 5.6-7.54 7.422-1.51.47-2.98.703-4.413.703-.73 0-1.497-.078-2.305-.234-2.265-.443-4.023-1.16-5.273-2.15-.547-.44-.82-.858-.82-1.25 0-.207.065-.39.195-.545.39-.495.977-.665 1.758-.508 1.875 1.406 3.815 2.11 5.82 2.11 1.146 0 2.435-.235 3.867-.704 3.047-1.72 4.896-3.41 5.547-5.078a1.92 1.92 0 0 0 .155-.703c0-.677-.48-1.016-1.445-1.016-.703 0-2.41.364-5.117 1.093-2.5.677-4.154 1.015-4.96 1.015-1.485 0-2.228-.625-2.228-1.875 0-.442.157-.963.47-1.562 2.265-4.4 5.793-6.6 10.585-6.6.78 0 1.576.064 2.383.195zM798.402 402.978c.13-.495.352-.742.664-.742.417 0 .847.234 1.29.703.442.468.664.91.664 1.327 0 .443-.222.898-.665 1.367a38.544 38.544 0 0 0-1.64 3.28 9.54 9.54 0 0 1 .86-.038c1.3 0 2.512.3 3.632.9.625.077.938.598.938 1.56-.027.99-.456 1.46-1.29 1.407-1.093-.807-2.29-1.21-3.593-1.21-.547 0-1.107.065-1.68.195-.182.416-1.276 3.724-3.28 9.922-.105.312-.157.56-.157.742 0 .73.598 1.028 1.796.898.47.026 1.07-.13 1.798-.468 1.016-.47 1.59-.73 1.72-.782.65 0 .963.39.937 1.172-.027.833-.26 1.42-.704 1.758-2.915.885-4.83 1.302-5.74 1.25-.912-.052-1.628-.456-2.15-1.21-.494-.678-.702-1.485-.624-2.423.65-2.083 1.64-5.22 2.97-9.414-.47.287-1.147.742-2.033 1.367a.693.693 0 0 1-.312.078c-.494 0-.74-.455-.74-1.367 0-.468.155-.897.467-1.288 1.328-.91 2.59-1.614 3.79-2.11.91-2.577 1.94-4.87 3.085-6.874zM819.262 408.447h1.093l.196.546.977.625.82 2.227-.702 2.773-.82 1.094-3.438 1.72-3.594.897h-1.68l-1.054-1.212-1.212 1.29-.703 1.054-.586.9-.236 1.21.703 1.054.977.625 1.406.43 2.735-.546 1.093-.117 1.485-.117.976-.782 2.577-.507-.273.626-1.64 1.836-2.344 1.328-1.407.312-1.328.313-1.445.273h-1.64l-2.54-.78-.82-1.056-.938-1.72-.234-.82.117-1.68.86-1.56.546-1.056.86-.78.587-.9 1.406-1.6 3.71-3.44 2.15-1.288c1.223-.703 2.343-1.093 3.36-1.17zm-1.055 2.382l-1.055.468-3.36 2.383-.585 1.76.195.233 4.414-1.133 1.446-1.64.508-.938-.625-.78zM822.895 410.36c.026-1.067.625-1.55 1.796-1.445 1.095.078 1.68.69 1.76 1.836.103 1.902.13 3.4.077 4.493-.078 1.276-.273 2.826-.586 4.65 1.382-1.407 2.71-3.178 3.986-5.314.052-.08 1.133-2.02 3.242-5.82.312-.574.742-.86 1.29-.86.31 0 .624.104.937.312.546.365.82.768.82 1.21 0 .262-.078.51-.235.743-2.265 3.542-5.716 8.386-10.35 14.532-.027 1.302-.6 1.875-1.72 1.718-.937-.13-1.406-.39-1.406-.78a.63.63 0 0 1 .078-.274c.52-4.505.78-7.877.78-10.117 0-1.77-.155-3.398-.468-4.882z"/></g><g font-weight="400" color="#000" font-family="Sans"><path style="text-indent:0;text-align:start;line-height:normal;text-transform:none;block-progression:tb;-inkscape-font-specification:Sans" d="M836.594 195.238s-20.084 15.796-40.187 37.156c-20.103 21.36-40.47 48.158-40.47 71.22h3.5c0-20.94 19.636-47.674 39.532-68.814 19.896-21.14 39.812-36.812 39.812-36.812l-2.188-2.75z" overflow="visible" enable-background="accumulate"/><path d="M813.74 192.07a1.68 1.68 0 0 0 1.042 3.022l24.565 1.705a1.68 1.68 0 1 0 .29-3.237l-24.644-1.808a1.68 1.68 0 0 0-1.253.318z" style="text-indent:0;text-align:start;line-height:normal;text-transform:none;block-progression:tb;-inkscape-font-specification:Sans" overflow="visible" enable-background="accumulate"/><path d="M838.748 194.763a1.68 1.68 0 0 0-.294.9l-4.102 24.28a1.68 1.68 0 1 0 3.296.578l4.02-24.382a1.68 1.68 0 0 0-2.92-1.375z" style="text-indent:0;text-align:start;line-height:normal;text-transform:none;block-progression:tb;-inkscape-font-specification:Sans" overflow="visible" enable-background="accumulate"/></g></g><g transform="matrix(.76604 0 0 .76604 -526.83 -125.142)" filter="url(#c)"><g style="text-align:center;line-height:92.00000167%;-inkscape-font-specification:InkiCE" font-size="40" font-weight="400" letter-spacing="0" word-spacing="0" text-anchor="middle" font-family="InkiCE"><path d="M726.37 338.245c.157-.937.873-1.406 2.15-1.406.625 0 .976.272 1.054.82 2.5-.886 4.753-1.264 6.758-1.134 1.77.365 2.656 1.198 2.656 2.5 0 1.797-1.093 4.323-3.28 7.578-2.76 4.115-5.82 6.172-9.18 6.172-1.277 0-2.123-.338-2.54-1.015a28.773 28.773 0 0 0-.78 4.376c.155.703-.366 1.263-1.563 1.68-.443.156-.808.234-1.094.234-.416 0-.572-.222-.468-.664 1.016-4.037 1.85-7.136 2.5-9.297 1.12-3.673 2.292-6.63 3.516-8.868.026-.21.117-.534.273-.977zm1.954 2.383c-1.432 2.76-2.59 5.482-3.476 8.164.468.833 1.028 1.263 1.68 1.29 1.432.077 2.838-.444 4.218-1.564.417-.338 1.524-1.432 3.32-3.28.938-1.25 1.68-2.423 2.227-3.516.156-.313.234-.6.234-.86 0-.677-.455-1.224-1.367-1.64-.312-.026-.638-.04-.976-.04-1.615 0-3.568.482-5.86 1.446zM744.066 337.464c.157-.938.873-1.406 2.15-1.406.78 0 1.17.273 1.17.82 0 .338-.17.807-.507 1.406-.105.208-.248.47-.43.78 2.525-1.796 4.817-2.616 6.874-2.46.235-.078.443-.117.625-.117 1.275 0 1.913 1.08 1.913 3.242 0 .78-.117 1.692-.35 2.734.155 1.224-.327 1.966-1.447 2.226a1.674 1.674 0 0 1-.586.118c-.442 0-.664-.21-.664-.625 0-.183.053-.43.157-.743.364-1.015.507-1.953.43-2.812-.053-.78-.47-1.237-1.25-1.367-1.407 0-2.956.678-4.65 2.032-.65.52-1.913 1.745-3.788 3.672-.39 1.38-.716 3.346-.977 5.898.157.703-.364 1.263-1.562 1.68-.443.156-.808.234-1.094.234-.443 0-.612-.22-.508-.664l2.188-8.633c.416-1.693 1.093-3.373 2.03-5.04.105-.494.196-.82.274-.976zm7.188-3.242c-2.396-2.084-4.193-3.256-5.39-3.516-.834-.052-1.277-.286-1.33-.703.053-.365.13-.742.236-1.133.364-.755.755-1.133 1.17-1.133.158 0 .366.222.626.664.365.027 1.023.32 1.973.88.95.56 1.933 1.166 2.948 1.817 2.396-2.006 4.35-2.956 5.86-2.852.442.104.664.313.664.625 0 .26-.104.547-.313.86-.39.598-.808.898-1.25.898a1.04 1.04 0 0 1-.47-.117c-.99.6-2.565 1.837-4.726 3.712zM770.63 334.847h1.093l.195.546.977.625.82 2.227-.703 2.773-.82 1.094-3.438 1.72-3.594.897h-1.68l-1.054-1.212-1.21 1.29-.704 1.054-.586.9-.235 1.21.705 1.054.976.625 1.407.43 2.735-.546 1.093-.117 1.485-.117.976-.782 2.58-.507-.275.626-1.64 1.836-2.343 1.328-1.407.312-1.328.313-1.445.273h-1.64l-2.54-.78-.82-1.056-.937-1.72-.235-.82.117-1.68.86-1.56.547-1.056.858-.78.586-.9 1.406-1.6 3.71-3.438 2.15-1.29c1.223-.703 2.343-1.093 3.36-1.17zm-1.056 2.382l-1.054.468-3.36 2.383-.586 1.76.196.233 4.414-1.133 1.445-1.64.507-.938-.625-.78zM779.184 338.245c.156-.937.872-1.406 2.148-1.406.625 0 .977.272 1.055.82 2.5-.886 4.752-1.264 6.758-1.134 1.77.365 2.656 1.198 2.656 2.5 0 1.797-1.093 4.323-3.28 7.578-2.76 4.115-5.82 6.172-9.18 6.172-1.276 0-2.123-.338-2.54-1.015a28.773 28.773 0 0 0-.78 4.376c.156.703-.365 1.263-1.563 1.68-.443.156-.807.234-1.094.234-.416 0-.573-.222-.468-.664 1.015-4.037 1.848-7.136 2.5-9.297 1.12-3.673 2.29-6.63 3.515-8.868.026-.21.117-.534.274-.977zm1.953 2.383c-1.433 2.76-2.59 5.482-3.477 8.164.47.833 1.03 1.263 1.68 1.29 1.432.077 2.838-.444 4.22-1.564.415-.338 1.522-1.432 3.32-3.28.936-1.25 1.68-2.423 2.225-3.516.157-.313.235-.6.235-.86 0-.677-.456-1.224-1.367-1.64-.313-.026-.638-.04-.977-.04-1.614 0-3.568.482-5.86 1.446zM796.957 337.542c.182-.912.91-1.367 2.188-1.367.78 0 1.17.26 1.17.78 0 .34-.168.808-.506 1.407-1.486 2.604-2.462 4.61-2.93 6.016-.522 1.562-.926 3.75-1.212 6.562.156.703-.365 1.263-1.563 1.68-.442.156-.807.234-1.093.234-.443 0-.612-.22-.508-.664l2.148-8.593c.39-1.563 1.08-3.256 2.07-5.08.053-.363.13-.69.235-.975zm7.695-9.805c.313.313.39.768.235 1.367-.39 1.33-1.85 2.58-4.375 3.75-1.667.782-2.657 1.03-2.97.743-.103-.105-.116-.26-.038-.47.156-.442.612-1.04 1.367-1.796l2.657-2.694c.417-.443.912-.782 1.485-1.016.73-.312 1.276-.273 1.64.117zM804.535 337.464c.182-.938.912-1.406 2.188-1.406.78 0 1.172.273 1.172.82 0 .364-.235.95-.704 1.758-.18.312-.506.898-.975 1.757l-.9 1.758c2.007-1.51 4.48-3.007 7.423-4.49.573-.183 1.068-.274 1.485-.274.78 0 1.172.338 1.172 1.015 0 .105-.163.854-.49 2.247-.324 1.394-.734 3.145-1.23 5.254a71.886 71.886 0 0 1-1.64 5.587c0 .625-.625 1.003-1.875 1.133-.833.104-1.25-.09-1.25-.586 0-.234.104-.547.313-.937 1.458-3.776 2.356-6.993 2.695-9.65-.13-.155-.326-.233-.586-.233-.52 0-1.315.312-2.383.937-1.615.94-3.27 2.15-4.962 3.634-.312 1.354-.56 3.047-.742 5.078.156.703-.364 1.263-1.562 1.68-.443.156-.808.234-1.094.234-.443 0-.612-.22-.508-.664l2.148-8.633c.365-1.51 1.055-3.19 2.07-5.04.053-.364.13-.69.235-.976zM834.965 337.386c-1.172 2.838-2.357 6.406-3.555 10.703-1.98 3.098-4.922 4.62-8.828 4.57-3.1-.34-4.96-.99-5.586-1.954-.39-.6-.586-1.146-.586-1.64 0-.34.078-.665.235-.977 2.76-3.178 5.22-5.08 7.382-5.704 1.953-.834 4.297-1.25 7.032-1.25a19.81 19.81 0 0 1 1.092-3.32c.078-.6-.143-1.068-.664-1.407-.78-.366-1.914-.366-3.398 0-1.563.13-3.164.898-4.805 2.304-.286.234-.586.35-.898.35-.287 0-.547-.155-.782-.467-.234-.313-.35-.6-.35-.86s.142-.547.43-.86c1.51-1.458 3.527-2.46 6.053-3.007 1.797-.417 3.373-.443 4.727-.078 1.484.417 2.318 1.615 2.5 3.594zm-5.352 6.562a6.81 6.81 0 0 0-1.718-.234c-.86 0-2.006.3-3.438.898-1.172.495-2.038.97-2.598 1.426-.56.456-1.166 1.217-1.817 2.285-.078.78.117 1.315.586 1.602.39.234.988.325 1.796.273 1.562.235 2.812.163 3.75-.215.937-.377 1.862-1.204 2.773-2.48l.468-1.797c.156-.6.22-1.185.195-1.758zM851.176 339.964c.052.677-.378 1.25-1.29 1.72-.416.207-.74.31-.976.31-.286 0-.43-.155-.43-.468.287-.78.43-1.458.43-2.03 0-1.173-.338-1.85-1.015-2.032-2.474 1.224-4.467 2.695-5.977 4.414-1.354 1.562-2.617 3.698-3.79 6.406-.077 1.042.248 1.563.977 1.563.34 0 .77-.105 1.29-.313.39-.156 2.773-1.34 7.148-3.555a.973.973 0 0 1 .43-.118c.364 0 .638.313.82.938.234.86.078 1.445-.47 1.758-3.697 2.083-6.705 3.41-9.022 3.984-.52.13-.95.195-1.288.195-1.563 0-2.344-1.29-2.344-3.867 1.823-6.745 5.833-11.484 12.03-14.22.756-.337 1.38-.507 1.876-.507.47 0 .873.176 1.21.528.34.352.522.776.548 1.27a5.68 5.68 0 0 1 .234 1.64c0 .73-.13 1.524-.39 2.384zm-2.97-7.54c-2.395-2.083-4.192-3.254-5.39-3.515-.833-.053-1.276-.287-1.328-.704a9.76 9.76 0 0 1 .235-1.133c.364-.755.755-1.133 1.172-1.133.156 0 .364.222.625.664.364.026 1.022.32 1.972.88s1.934 1.165 2.95 1.816c2.395-2.005 4.348-2.956 5.86-2.852.44.104.663.313.663.625 0 .26-.104.547-.313.86-.39.598-.807.898-1.25.898a1.04 1.04 0 0 1-.468-.116c-.99.6-2.566 1.836-4.727 3.71zM720.63 374.264c.155-.938.87-1.406 2.147-1.406.782 0 1.172.273 1.172.82 0 .286-.378 1.133-1.134 2.54l-.546 1.015c1.458-1.146 2.89-2.07 4.296-2.774.573-.183 1.068-.274 1.485-.274.782 0 1.173.338 1.173 1.015 0 .522-.17 1.277-.508 2.267v.156c1.64-1.302 3.23-2.357 4.765-3.164.573-.183 1.068-.274 1.485-.274.807 0 1.21.338 1.21 1.015 0 .053-.17.81-.507 2.267-1.224 5.182-2.188 8.79-2.89 10.82 0 .625-.626 1.003-1.876 1.133-.833.104-1.25-.078-1.25-.547 0-.26.118-.586.352-.976 1.432-3.855 2.33-7.07 2.695-9.65a.63.63 0 0 0-.51-.233c-.65 0-2.017.872-4.1 2.617a81.386 81.386 0 0 1-2.227 7.657c0 .625-.625 1.003-1.875 1.133-.833.104-1.25-.078-1.25-.547 0-.26.117-.586.352-.976 1.432-3.907 2.318-7.123 2.656-9.65a.63.63 0 0 0-.508-.233c-.703 0-2.29 1.067-4.765 3.203-.47 1.354-.86 3.502-1.172 6.445.157.703-.364 1.263-1.562 1.68-.442.156-.807.234-1.093.234-.443 0-.612-.22-.508-.664l2.187-8.633c.39-1.59 1.068-3.27 2.03-5.04.027-.208.12-.534.275-.976zM755.746 374.186c-1.172 2.838-2.357 6.406-3.555 10.703-1.978 3.098-4.92 4.62-8.827 4.57-3.1-.34-4.96-.99-5.586-1.954-.39-.6-.586-1.146-.586-1.64 0-.34.08-.665.236-.977 2.76-3.178 5.22-5.08 7.383-5.704 1.952-.834 4.295-1.25 7.03-1.25a19.81 19.81 0 0 1 1.094-3.32c.078-.6-.144-1.068-.664-1.407-.782-.366-1.915-.366-3.4 0-1.56.13-3.163.898-4.804 2.304-.286.234-.586.35-.898.35-.287 0-.547-.155-.78-.467-.236-.313-.353-.6-.353-.86s.143-.547.43-.86c1.51-1.458 3.528-2.46 6.055-3.007 1.796-.417 3.372-.443 4.726-.078 1.484.417 2.318 1.614 2.5 3.594zm-5.35 6.562a6.81 6.81 0 0 0-1.72-.234c-.86 0-2.005.3-3.438.898-1.172.495-2.037.97-2.597 1.426-.56.456-1.165 1.217-1.816 2.285-.078.78.117 1.315.586 1.602.39.234.99.325 1.797.273 1.563.234 2.813.163 3.75-.215.938-.377 1.862-1.204 2.773-2.48l.47-1.797c.155-.6.22-1.185.195-1.758zM761.762 375.045c.156-.937.872-1.406 2.148-1.406.625 0 .977.272 1.055.82 2.5-.886 4.752-1.264 6.758-1.134 1.77.365 2.656 1.198 2.656 2.5 0 1.797-1.095 4.323-3.282 7.578-2.76 4.115-5.82 6.172-9.18 6.172-1.276 0-2.122-.338-2.54-1.015a28.772 28.772 0 0 0-.78 4.376c.156.703-.365 1.263-1.563 1.68-.443.156-.807.234-1.094.234-.415 0-.572-.222-.467-.664 1.015-4.037 1.85-7.136 2.5-9.297 1.12-3.673 2.29-6.63 3.515-8.868.026-.21.117-.534.274-.977zm1.953 2.383c-1.432 2.76-2.59 5.482-3.477 8.164.47.833 1.03 1.263 1.68 1.29 1.432.077 2.84-.444 4.22-1.564.415-.338 1.522-1.432 3.32-3.28.937-1.25 1.68-2.423 2.226-3.516.156-.313.234-.6.234-.86 0-.677-.456-1.224-1.367-1.64-.312-.026-.637-.04-.976-.04-1.614 0-3.567.482-5.86 1.446zM785.043 374.38a14.94 14.94 0 0 1 1.484-.077c2.526 0 4.18.73 4.96 2.187.496.938.743 2.045.743 3.32 0 1.094-.182 2.318-.546 3.673-.99 1.953-2.605 3.476-4.844 4.57-2.03.99-4.232 1.484-6.602 1.484-.364 0-.846-.026-1.445-.078-2.448-.21-3.672-1.342-3.672-3.4 0-.234.014-.494.04-.78 1.77-5.39 5.065-9.024 9.883-10.9zm-.508 2.774c-3.177 1.224-5.338 3.58-6.484 7.07-.025.21-.038.417-.038.626 0 1.276.807 1.98 2.422 2.11.312.025.625.038.937.038 1.59 0 3.022-.312 4.298-.937 1.458-.702 2.513-1.705 3.164-3.007.234-.886.352-1.693.352-2.422 0-2.37-1.198-3.554-3.594-3.554-.34 0-.69.026-1.055.078zM794.105 373.56c.026-1.067.625-1.55 1.797-1.445 1.094.078 1.68.69 1.758 1.836.104 1.902.13 3.4.078 4.493-.078 1.276-.273 2.826-.586 4.65 1.38-1.407 2.71-3.178 3.985-5.314.052-.08 1.132-2.02 3.242-5.82.31-.574.74-.86 1.288-.86.312 0 .625.104.937.312.547.365.82.768.82 1.21 0 .262-.077.51-.234.743-2.264 3.542-5.715 8.386-10.35 14.532-.026 1.302-.6 1.875-1.72 1.718-.936-.13-1.405-.39-1.405-.78a.63.63 0 0 1 .078-.274c.52-4.505.78-7.877.78-10.117 0-1.77-.155-3.398-.468-4.882zM818.363 384.693a32.205 32.205 0 0 1-4.336 2.58l-3.984 1.952c-.6.208-1.107.312-1.523.312-.756 0-1.133-.325-1.133-.976 0-.104.162-.872.488-2.304a5581.5 5581.5 0 0 0 1.23-5.43 64.014 64.014 0 0 1 1.64-5.43c-.025-.572.587-.937 1.837-1.093.833-.104 1.25.078 1.25.547 0 .234-.104.547-.312.937-1.46 3.854-2.357 7.084-2.696 9.688.13.182.352.273.664.273.52 0 1.354-.273 2.5-.82a25.13 25.13 0 0 0 5.157-3.32c.26-1.25.416-2.37.468-3.36.052-.99-.078-1.68-.39-2.07-.026-1.224.534-2.15 1.68-2.774.338-.182.61-.273.82-.273.547 0 .794.496.742 1.485.13.417.195.95.195 1.602 0 .573-.052 1.237-.156 1.992-.6 4.322-1.9 8.866-3.906 13.632-1.25 2.943-3.594 4.414-7.032 4.414-1.98 0-4.218-.52-6.718-1.563-.86-.572-1.29-1.08-1.29-1.523 0-.286.17-.54.508-.762.34-.22.664-.332.977-.332.47 0 .898.235 1.29.703 1.952.78 3.593 1.158 4.92 1.132 1.303-.026 2.735-.664 4.298-1.914.808-1.146 1.746-3.58 2.813-7.305zm4.532-19.218c.312.312.39.768.234 1.367-.392 1.328-1.85 2.578-4.376 3.75-1.667.78-2.656 1.03-2.97.742-.103-.104-.116-.26-.038-.47.156-.44.612-1.04 1.367-1.796l2.657-2.695c.416-.443.91-.78 1.484-1.016.73-.312 1.276-.273 1.64.118zM838.832 376.764c.052.677-.378 1.25-1.29 1.72-.416.207-.74.31-.976.31-.286 0-.43-.155-.43-.468.287-.78.43-1.458.43-2.03 0-1.173-.338-1.85-1.015-2.032-2.473 1.224-4.465 2.695-5.976 4.414-1.354 1.562-2.617 3.698-3.79 6.406-.077 1.042.25 1.563.978 1.563.338 0 .768-.105 1.29-.313.39-.156 2.772-1.34 7.147-3.555a.973.973 0 0 1 .43-.118c.363 0 .637.313.82.938.234.86.077 1.445-.47 1.758-3.697 2.083-6.705 3.41-9.023 3.984-.52.13-.95.195-1.29.195-1.562 0-2.343-1.29-2.343-3.867 1.823-6.745 5.834-11.484 12.03-14.22.757-.337 1.382-.507 1.876-.507.47 0 .873.176 1.21.528.34.352.522.776.548 1.27a5.68 5.68 0 0 1 .235 1.64c0 .73-.13 1.524-.39 2.384zM846.605 369.772c.157-.938.873-1.407 2.15-1.407.78 0 1.17.274 1.17.82 0 .235-.533 1.38-1.6 3.438-.235.47-.56 1.133-.977 1.992 2.005-.73 3.815-1.093 5.43-1.093.39 0 .768.013 1.132.04.26-.08.495-.12.703-.12 1.276 0 1.875 1.37 1.797 4.103-.078 3.23-1.784 7.214-5.117 11.953-.313.573-.638.86-.977.86-.677 0-1.015-.456-1.015-1.368 0-.416.105-.91.313-1.484 1.51-1.72 2.76-3.893 3.75-6.523.443-1.172.664-2.24.664-3.204 0-.912-.416-1.433-1.25-1.563-1.927-.13-4.166.325-6.718 1.367-1.434 3.594-2.306 6.953-2.62 10.078.158.703-.363 1.263-1.56 1.68-.444.156-.808.234-1.095.234-.443 0-.612-.22-.508-.664.912-3.62 1.758-6.705 2.54-9.258 1.12-3.724 2.29-6.692 3.515-8.906.052-.156.143-.482.273-.976zM737.816 410.36c.026-1.067.625-1.55 1.797-1.445 1.094.078 1.68.69 1.758 1.836.105 1.902.13 3.4.08 4.493-.08 1.276-.274 2.826-.587 4.65 1.38-1.407 2.71-3.178 3.985-5.314.052-.08 1.132-2.02 3.242-5.82.312-.574.742-.86 1.29-.86.31 0 .624.104.936.312.547.365.82.768.82 1.21 0 .262-.077.51-.234.743-2.265 3.542-5.716 8.386-10.35 14.532-.027 1.302-.6 1.875-1.72 1.718-.938-.13-1.406-.39-1.406-.78a.63.63 0 0 1 .078-.274c.52-4.505.78-7.877.78-10.117 0-1.77-.155-3.398-.468-4.882zM755.512 411.064c.156-.938.872-1.406 2.148-1.406.78 0 1.172.273 1.172.82 0 .338-.17.807-.508 1.406-.104.208-.247.47-.43.78 2.527-1.796 4.818-2.616 6.876-2.46.234-.078.442-.117.625-.117 1.276 0 1.914 1.08 1.914 3.242 0 .78-.12 1.692-.353 2.734.156 1.224-.326 1.966-1.445 2.226a1.674 1.674 0 0 1-.586.118c-.443 0-.664-.21-.664-.625 0-.183.052-.43.156-.743.365-1.015.508-1.953.43-2.812-.052-.78-.47-1.237-1.25-1.367-1.407 0-2.956.678-4.65 2.032-.65.52-1.913 1.745-3.788 3.672-.39 1.38-.716 3.346-.976 5.898.156.703-.365 1.263-1.563 1.68-.442.156-.806.234-1.093.234-.442 0-.612-.22-.507-.664l2.187-8.633c.417-1.693 1.094-3.373 2.03-5.04.105-.494.197-.82.275-.976zM785.043 408.525c.91.234 1.367.6 1.367 1.093 0 .13-.052.3-.156.508-.39.755-.964 1.107-1.72 1.055a5.787 5.787 0 0 0-1.913-.312c-.91 0-1.86.17-2.85.508-1.823.625-3.125 1.485-3.907 2.578-.73.704-1.04 1.263-.937 1.68.104.365.482.443 1.133.234.858-.286 2.655-.82 5.39-1.6l.273-.08a9.915 9.915 0 0 1 2.968-.39c1.564-.156 2.67.26 3.322 1.25.39.6.586 1.237.586 1.914 0 .417-.08.834-.235 1.25-1.614 3.125-4.127 5.6-7.54 7.422-1.51.47-2.98.703-4.413.703-.73 0-1.497-.078-2.305-.234-2.265-.443-4.023-1.16-5.273-2.15-.547-.44-.82-.858-.82-1.25 0-.207.065-.39.195-.545.39-.495.977-.665 1.758-.508 1.875 1.406 3.815 2.11 5.82 2.11 1.146 0 2.435-.235 3.867-.704 3.047-1.72 4.896-3.41 5.547-5.078a1.92 1.92 0 0 0 .155-.703c0-.677-.48-1.016-1.445-1.016-.703 0-2.41.364-5.117 1.093-2.5.677-4.154 1.015-4.96 1.015-1.485 0-2.228-.625-2.228-1.875 0-.442.157-.963.47-1.562 2.265-4.4 5.793-6.6 10.585-6.6.78 0 1.576.064 2.383.195zM798.402 402.978c.13-.495.352-.742.664-.742.417 0 .847.234 1.29.703.442.468.664.91.664 1.327 0 .443-.222.898-.665 1.367a38.544 38.544 0 0 0-1.64 3.28 9.54 9.54 0 0 1 .86-.038c1.3 0 2.512.3 3.632.9.625.077.938.598.938 1.56-.027.99-.456 1.46-1.29 1.407-1.093-.807-2.29-1.21-3.593-1.21-.547 0-1.107.065-1.68.195-.182.416-1.276 3.724-3.28 9.922-.105.312-.157.56-.157.742 0 .73.598 1.028 1.796.898.47.026 1.07-.13 1.798-.468 1.016-.47 1.59-.73 1.72-.782.65 0 .963.39.937 1.172-.027.833-.26 1.42-.704 1.758-2.915.885-4.83 1.302-5.74 1.25-.912-.052-1.628-.456-2.15-1.21-.494-.678-.702-1.485-.624-2.423.65-2.083 1.64-5.22 2.97-9.414-.47.287-1.147.742-2.033 1.367a.693.693 0 0 1-.312.078c-.494 0-.74-.455-.74-1.367 0-.468.155-.897.467-1.288 1.328-.91 2.59-1.614 3.79-2.11.91-2.577 1.94-4.87 3.085-6.874zM819.262 408.447h1.093l.196.546.977.625.82 2.227-.702 2.773-.82 1.094-3.438 1.72-3.594.897h-1.68l-1.054-1.212-1.212 1.29-.703 1.054-.586.9-.236 1.21.703 1.054.977.625 1.406.43 2.735-.546 1.093-.117 1.485-.117.976-.782 2.577-.507-.273.626-1.64 1.836-2.344 1.328-1.407.312-1.328.313-1.445.273h-1.64l-2.54-.78-.82-1.056-.938-1.72-.234-.82.117-1.68.86-1.56.546-1.056.86-.78.587-.9 1.406-1.6 3.71-3.44 2.15-1.288c1.223-.703 2.343-1.093 3.36-1.17zm-1.055 2.382l-1.055.468-3.36 2.383-.585 1.76.195.233 4.414-1.133 1.446-1.64.508-.938-.625-.78zM822.895 410.36c.026-1.067.625-1.55 1.796-1.445 1.095.078 1.68.69 1.76 1.836.103 1.902.13 3.4.077 4.493-.078 1.276-.273 2.826-.586 4.65 1.382-1.407 2.71-3.178 3.986-5.314.052-.08 1.133-2.02 3.242-5.82.312-.574.742-.86 1.29-.86.31 0 .624.104.937.312.546.365.82.768.82 1.21 0 .262-.078.51-.235.743-2.265 3.542-5.716 8.386-10.35 14.532-.027 1.302-.6 1.875-1.72 1.718-.937-.13-1.406-.39-1.406-.78a.63.63 0 0 1 .078-.274c.52-4.505.78-7.877.78-10.117 0-1.77-.155-3.398-.468-4.882z"/></g><g font-weight="400" color="#000" font-family="Sans"><path d="M836.594 195.238s-20.084 15.796-40.187 37.156c-20.103 21.36-40.47 48.158-40.47 71.22h3.5c0-20.94 19.636-47.674 39.532-68.814 19.896-21.14 39.812-36.812 39.812-36.812l-2.188-2.75z" style="text-indent:0;text-align:start;line-height:normal;text-transform:none;block-progression:tb;-inkscape-font-specification:Sans" overflow="visible" enable-background="accumulate"/><path style="text-indent:0;text-align:start;line-height:normal;text-transform:none;block-progression:tb;-inkscape-font-specification:Sans" d="M813.74 192.07a1.68 1.68 0 0 0 1.042 3.022l24.565 1.705a1.68 1.68 0 1 0 .29-3.237l-24.644-1.808a1.68 1.68 0 0 0-1.253.318z" overflow="visible" enable-background="accumulate"/><path style="text-indent:0;text-align:start;line-height:normal;text-transform:none;block-progression:tb;-inkscape-font-specification:Sans" d="M838.748 194.763a1.68 1.68 0 0 0-.294.9l-4.102 24.28a1.68 1.68 0 1 0 3.296.578l4.02-24.382a1.68 1.68 0 0 0-2.92-1.375z" overflow="visible" enable-background="accumulate"/></g></g><g><g fill="#fff"><g style="text-align:center;line-height:92.00000167%;-inkscape-font-specification:InkiCE" font-size="40" font-weight="400" letter-spacing="0" word-spacing="0" text-anchor="middle" font-family="InkiCE"><path d="M29.596 133.966c.12-.718.668-1.078 1.646-1.078.478 0 .748.21.807.63 1.915-.68 3.64-.97 5.176-.87 1.357.28 2.035.92 2.035 1.916 0 1.377-.837 3.312-2.513 5.805-2.114 3.15-4.458 4.727-7.032 4.727-.977 0-1.625-.26-1.945-.778a22.04 22.04 0 0 0-.598 3.35c.12.54-.28.968-1.197 1.287-.34.12-.618.18-.838.18-.32 0-.44-.17-.36-.51.78-3.09 1.417-5.465 1.916-7.12.858-2.813 1.756-5.078 2.693-6.793.02-.16.09-.41.21-.748zm1.496 1.825c-1.097 2.116-1.985 4.2-2.663 6.255.358.638.787.967 1.285.987 1.098.06 2.175-.34 3.232-1.197.32-.26 1.167-1.097 2.544-2.513.72-.958 1.287-1.855 1.706-2.693.12-.24.18-.46.18-.66 0-.518-.35-.937-1.047-1.256-.24-.02-.49-.03-.75-.03-1.236 0-2.733.37-4.488 1.107zM43.15 133.367c.12-.718.67-1.077 1.647-1.077.598 0 .897.21.898.628 0 .26-.13.62-.39 1.078-.08.16-.19.36-.33.598 1.936-1.376 3.692-2.005 5.268-1.885.18-.06.34-.09.48-.09.976 0 1.465.827 1.465 2.483 0 .598-.09 1.296-.27 2.094.12.938-.25 1.507-1.107 1.706-.158.06-.308.09-.447.09-.34 0-.51-.16-.51-.48 0-.14.04-.328.12-.568.28-.778.39-1.496.33-2.154-.04-.597-.36-.947-.958-1.046-1.077 0-2.264.518-3.56 1.556-.5.4-1.467 1.336-2.903 2.812-.3 1.058-.55 2.564-.748 4.52.12.538-.28.966-1.197 1.286-.34.12-.62.18-.838.18-.34 0-.47-.17-.39-.51l1.676-6.613c.32-1.296.837-2.583 1.556-3.86.08-.38.15-.628.21-.748zm5.507-2.483c-1.835-1.596-3.212-2.494-4.13-2.694-.638-.04-.977-.22-1.017-.538.04-.28.1-.57.18-.868.28-.578.578-.868.897-.868.12 0 .28.17.48.51.278.02.782.243 1.51.672.728.43 1.48.893 2.26 1.392 1.835-1.536 3.33-2.264 4.488-2.185.34.08.51.24.51.48 0 .2-.08.418-.24.657-.3.46-.62.69-.958.69-.12 0-.24-.03-.36-.09-.757.458-1.964 1.405-3.62 2.842zM63.5 131.362h.837l.15.42.747.478.63 1.706-.54 2.124-.628.838-2.633 1.317-2.753.688h-1.287l-.808-.928-.928.988-.538.808-.45.69-.18.927.54.807.747.48 1.077.328 2.095-.42.837-.088 1.137-.09.748-.6 1.975-.388-.21.48-1.256 1.406-1.795 1.017-1.077.238-1.017.24-1.107.21h-1.256l-1.945-.6-.63-.807-.717-1.316-.18-.628.09-1.287.66-1.198.418-.808.658-.598.45-.688 1.077-1.227 2.843-2.633 1.645-.987c.938-.54 1.796-.838 2.574-.898zm-.81 1.826l-.807.36-2.573 1.824-.45 1.347.15.178 3.382-.868 1.107-1.256.388-.72-.48-.597zM70.052 133.966c.12-.718.668-1.078 1.646-1.078.48 0 .748.21.808.63 1.915-.68 3.64-.97 5.177-.87 1.356.28 2.034.92 2.034 1.916 0 1.377-.838 3.312-2.513 5.805-2.115 3.15-4.46 4.727-7.032 4.727-.978 0-1.626-.26-1.945-.778a22.04 22.04 0 0 0-.6 3.35c.12.54-.278.968-1.196 1.287-.338.12-.617.18-.837.18-.32 0-.438-.17-.36-.51.78-3.09 1.418-5.465 1.917-7.12.857-2.813 1.755-5.078 2.693-6.793.02-.16.09-.41.21-.748zm1.496 1.825c-1.097 2.116-1.985 4.2-2.663 6.255.36.638.788.967 1.287.987 1.097.06 2.174-.34 3.23-1.197.32-.26 1.168-1.097 2.545-2.513.718-.958 1.287-1.855 1.706-2.693.12-.24.18-.46.18-.66 0-.518-.35-.937-1.048-1.256-.24-.02-.49-.03-.748-.03-1.237 0-2.733.37-4.49 1.107zM83.667 133.427c.14-.698.698-1.047 1.676-1.047.598 0 .898.2.898.598 0 .26-.13.62-.388 1.077-1.138 1.995-1.886 3.53-2.245 4.61-.4 1.196-.708 2.87-.927 5.026.12.54-.28.968-1.197 1.287-.34.12-.62.18-.838.18-.34 0-.47-.17-.39-.51l1.647-6.582c.3-1.197.828-2.493 1.586-3.89.04-.28.1-.53.18-.748zm5.895-7.51c.24.24.3.588.18 1.047-.3 1.017-1.417 1.975-3.352 2.872-1.277.6-2.035.788-2.274.57-.08-.08-.09-.2-.03-.36.12-.34.47-.798 1.047-1.377l2.035-2.065c.32-.34.698-.6 1.137-.778.56-.24.978-.21 1.257.09zM89.472 133.367c.14-.718.7-1.077 1.676-1.077.598 0 .898.21.898.628 0 .28-.18.728-.54 1.347-.14.24-.388.688-.747 1.346l-.69 1.348c1.537-1.157 3.432-2.304 5.686-3.44.44-.14.818-.21 1.137-.21.6 0 .898.26.898.777 0 .08-.124.654-.373 1.72l-.943 4.026a55.067 55.067 0 0 1-1.256 4.28c0 .478-.48.768-1.437.867-.637.08-.956-.07-.956-.448 0-.18.08-.42.24-.72 1.116-2.892 1.804-5.356 2.064-7.39-.1-.12-.25-.18-.45-.18-.398 0-1.006.24-1.824.718-1.237.718-2.504 1.646-3.8 2.783-.24 1.038-.43 2.335-.57 3.89.12.54-.278.968-1.196 1.288-.34.12-.62.18-.838.18-.34 0-.47-.17-.39-.51l1.647-6.613c.28-1.157.808-2.443 1.586-3.86.04-.28.1-.528.18-.748zM112.783 133.307c-.898 2.175-1.806 4.908-2.723 8.2-1.517 2.373-3.77 3.54-6.763 3.5-2.374-.26-3.8-.758-4.28-1.496-.298-.458-.448-.877-.448-1.256 0-.26.06-.508.18-.748 2.113-2.433 3.998-3.89 5.654-4.368 1.496-.64 3.292-.958 5.386-.958.2-.858.48-1.706.838-2.544.06-.458-.11-.817-.51-1.077-.597-.28-1.465-.28-2.602 0-1.197.1-2.424.688-3.68 1.765-.22.18-.45.27-.69.27-.218 0-.418-.12-.597-.36-.18-.24-.27-.46-.27-.658 0-.2.11-.42.33-.66 1.156-1.116 2.702-1.884 4.637-2.303 1.376-.32 2.583-.34 3.62-.06 1.138.32 1.776 1.237 1.916 2.753zm-4.1 5.027c-.46-.12-.898-.18-1.317-.18-.658 0-1.536.23-2.633.69-.898.378-1.56.742-1.99 1.09-.43.35-.892.934-1.39 1.752-.06.598.09 1.007.448 1.227.3.18.76.25 1.377.21 1.197.18 2.155.124 2.873-.165.718-.29 1.426-.923 2.124-1.9l.36-1.377c.12-.458.17-.907.15-1.346zM125.2 135.282c.04.52-.29.958-.987 1.317-.32.16-.568.238-.748.238-.22 0-.33-.12-.33-.36.22-.597.33-1.116.33-1.555 0-.897-.26-1.416-.778-1.556-1.895.938-3.42 2.065-4.578 3.382-1.038 1.195-2.006 2.83-2.904 4.906-.06.798.19 1.197.748 1.197.26 0 .59-.08.988-.24.3-.12 2.124-1.027 5.476-2.723.12-.06.23-.09.33-.09.278 0 .488.24.627.72.18.657.06 1.106-.36 1.345-2.83 1.596-5.136 2.614-6.91 3.053-.4.1-.73.15-.988.15-1.197 0-1.796-.988-1.796-2.963 1.398-5.167 4.47-8.798 9.218-10.892.578-.26 1.057-.39 1.436-.39.36 0 .668.135.927.405.26.27.4.593.42.972.12.4.18.818.18 1.257 0 .56-.1 1.167-.3 1.825zm-2.273-5.775c-1.836-1.596-3.212-2.494-4.13-2.693-.638-.04-.977-.22-1.017-.54.04-.278.1-.567.18-.866.28-.58.578-.868.897-.868.12 0 .28.17.48.51.278.02.782.243 1.51.672.728.43 1.48.893 2.26 1.39 1.834-1.535 3.33-2.263 4.488-2.183.34.08.508.238.508.478 0 .2-.08.42-.24.658-.298.46-.618.688-.957.688-.12 0-.24-.03-.36-.09-.757.46-1.964 1.407-3.62 2.843zM25.197 161.557c.12-.718.668-1.077 1.646-1.077.598 0 .898.21.898.628 0 .22-.29.868-.867 1.945l-.42.78c1.118-.88 2.215-1.587 3.292-2.126.44-.14.818-.21 1.137-.21.6 0 .898.26.898.778 0 .4-.13.978-.39 1.736v.12c1.258-.997 2.475-1.805 3.652-2.423.44-.14.818-.21 1.137-.21.617 0 .926.26.927.778 0 .04-.13.62-.39 1.736-.937 3.97-1.675 6.734-2.214 8.29 0 .48-.48.768-1.436.868-.64.08-.958-.06-.958-.42 0-.2.09-.448.27-.747 1.096-2.952 1.784-5.416 2.063-7.39a.483.483 0 0 0-.39-.18c-.497 0-1.545.668-3.14 2.005a62.345 62.345 0 0 1-1.706 5.865c0 .48-.48.768-1.437.868-.638.08-.957-.06-.957-.42 0-.2.09-.448.27-.747 1.096-2.992 1.775-5.455 2.034-7.39a.483.483 0 0 0-.39-.18c-.538 0-1.755.818-3.65 2.454-.36 1.037-.658 2.683-.897 4.937.12.54-.28.97-1.197 1.288-.34.12-.62.18-.838.18-.34 0-.47-.17-.39-.51l1.677-6.612c.3-1.217.817-2.504 1.556-3.86.02-.16.09-.41.21-.75zM52.098 161.497c-.898 2.175-1.805 4.908-2.723 8.2-1.516 2.373-3.77 3.54-6.763 3.5-2.374-.26-3.8-.758-4.28-1.496-.298-.457-.447-.876-.447-1.255 0-.26.06-.51.18-.75 2.114-2.432 4-3.89 5.655-4.367 1.496-.64 3.29-.958 5.386-.958.2-.858.48-1.705.838-2.543.06-.46-.11-.818-.51-1.078-.598-.28-1.465-.28-2.602 0-1.197.1-2.424.688-3.68 1.765-.22.18-.45.27-.69.27-.22 0-.418-.12-.598-.36s-.27-.46-.27-.658c0-.2.11-.42.33-.66 1.157-1.116 2.703-1.884 4.638-2.303 1.377-.32 2.584-.34 3.62-.06 1.138.32 1.776 1.237 1.916 2.754zm-4.1 5.028c-.458-.12-.897-.18-1.316-.18-.658 0-1.536.23-2.633.688-.9.38-1.562.743-1.99 1.092-.43.35-.894.933-1.393 1.75-.06.6.09 1.008.45 1.228.298.18.757.25 1.376.21 1.197.18 2.154.124 2.872-.165.718-.29 1.427-.923 2.125-1.9l.36-1.377c.12-.458.17-.907.15-1.345zM56.706 162.156c.12-.718.67-1.077 1.646-1.077.48 0 .748.208.808.627 1.915-.678 3.64-.968 5.177-.868 1.356.278 2.034.917 2.035 1.914 0 1.377-.838 3.312-2.514 5.805-2.115 3.15-4.46 4.727-7.032 4.727-.978 0-1.626-.26-1.945-.778a22.04 22.04 0 0 0-.598 3.35c.12.54-.28.968-1.196 1.287-.34.12-.62.18-.838.18-.32 0-.44-.17-.36-.51.78-3.09 1.417-5.465 1.916-7.12.858-2.813 1.755-5.078 2.693-6.793.02-.16.09-.41.21-.748zm1.496 1.825c-1.097 2.116-1.984 4.2-2.663 6.255.358.638.787.968 1.286.988 1.097.06 2.174-.34 3.232-1.197.32-.26 1.167-1.098 2.543-2.514.72-.957 1.288-1.855 1.707-2.693.12-.24.18-.46.18-.66 0-.518-.35-.937-1.048-1.256-.24-.02-.49-.03-.75-.03-1.236 0-2.732.37-4.488 1.107zM74.54 161.647c.4-.04.78-.06 1.138-.06 1.935 0 3.2.56 3.8 1.676.38.718.568 1.566.568 2.543 0 .838-.14 1.776-.418 2.813-.76 1.495-1.995 2.662-3.71 3.5-1.557.758-3.243 1.137-5.058 1.137-.28 0-.648-.02-1.107-.06-1.875-.16-2.813-1.027-2.813-2.603 0-.18.01-.38.03-.598 1.357-4.13 3.88-6.913 7.57-8.35zm-.388 2.125c-2.434.937-4.09 2.743-4.968 5.416-.02.16-.03.32-.03.48 0 .976.62 1.515 1.856 1.614.24.02.478.03.718.03 1.217 0 2.314-.24 3.29-.718 1.118-.538 1.926-1.306 2.425-2.304.18-.678.27-1.297.27-1.855 0-1.815-.918-2.723-2.754-2.723-.26 0-.53.02-.808.06zM81.483 161.02c.02-.82.48-1.188 1.376-1.108.837.06 1.286.528 1.346 1.406.08 1.456.1 2.603.06 3.44-.06.98-.21 2.166-.45 3.562 1.058-1.077 2.075-2.434 3.053-4.07.04-.06.867-1.546 2.483-4.458.24-.44.568-.658.987-.658.24 0 .48.08.718.24.42.278.63.587.63.927 0 .2-.06.39-.18.57-1.736 2.712-4.38 6.423-7.93 11.13-.02.998-.46 1.437-1.317 1.317-.717-.1-1.076-.3-1.076-.598 0-.06.02-.13.06-.21.398-3.452.598-6.035.598-7.75 0-1.357-.12-2.604-.36-3.74zM100.065 169.547a24.67 24.67 0 0 1-3.32 1.975l-3.054 1.496c-.457.16-.846.24-1.166.24-.578 0-.867-.25-.867-.75 0-.08.124-.667.374-1.764s.564-2.484.943-4.16c.38-1.476.798-2.862 1.257-4.16-.02-.438.45-.717 1.406-.837.64-.08.958.06.958.42 0 .18-.08.418-.24.717-1.116 2.953-1.805 5.426-2.064 7.42.1.14.27.21.51.21.398 0 1.036-.21 1.914-.628a19.25 19.25 0 0 0 3.95-2.543c.2-.958.32-1.815.36-2.573.04-.76-.06-1.287-.3-1.586-.02-.938.408-1.646 1.286-2.125.26-.14.47-.21.63-.21.417 0 .607.38.567 1.137.1.32.15.728.15 1.226 0 .44-.04.948-.12 1.527-.46 3.31-1.456 6.792-2.992 10.443-.958 2.254-2.753 3.38-5.387 3.38-1.516 0-3.23-.398-5.146-1.196-.66-.44-.988-.828-.988-1.167 0-.22.13-.414.39-.583.26-.17.508-.255.747-.255.36 0 .69.18.99.54 1.495.597 2.752.887 3.77.867.997-.02 2.094-.51 3.29-1.467.62-.878 1.337-2.743 2.155-5.596zm3.47-14.722c.24.24.3.588.18 1.047-.298 1.017-1.416 1.975-3.35 2.873-1.277.598-2.035.788-2.275.568-.08-.08-.09-.2-.03-.36.12-.338.47-.797 1.048-1.375l2.034-2.065c.32-.34.7-.6 1.137-.778.558-.24.977-.21 1.256.09zM115.745 163.472c.04.52-.29.958-.988 1.317-.32.16-.568.238-.748.238-.22 0-.33-.12-.33-.36.22-.597.33-1.116.33-1.555 0-.897-.26-1.416-.78-1.556-1.894.938-3.42 2.065-4.577 3.382-1.037 1.196-2.005 2.83-2.902 4.906-.06.798.19 1.197.75 1.197.258 0 .587-.08.986-.24.3-.12 2.125-1.027 5.476-2.722.12-.06.23-.09.33-.09.28 0 .488.24.628.72.18.657.06 1.106-.36 1.346-2.832 1.595-5.136 2.613-6.912 3.052-.4.1-.728.15-.987.15-1.196 0-1.795-.988-1.795-2.963 1.397-5.167 4.47-8.797 9.217-10.892.578-.26 1.057-.39 1.436-.39.36 0 .668.136.928.405.26.27.4.593.42.972.118.4.178.818.178 1.257 0 .56-.1 1.167-.3 1.825zM121.7 158.116c.12-.718.668-1.077 1.645-1.077.6 0 .898.208.898.627 0 .18-.41 1.058-1.227 2.634-.18.36-.43.868-.748 1.527 1.536-.56 2.923-.838 4.16-.838.3 0 .588.01.867.03.2-.06.38-.09.54-.09.976 0 1.435 1.046 1.375 3.14-.06 2.475-1.366 5.527-3.92 9.157-.24.44-.488.66-.748.66-.518 0-.778-.35-.778-1.05 0-.318.08-.697.24-1.136 1.157-1.315 2.114-2.98 2.872-4.996.34-.898.51-1.715.51-2.454 0-.698-.32-1.097-.958-1.196-1.477-.1-3.192.25-5.147 1.047-1.096 2.754-1.765 5.327-2.004 7.72.12.54-.28.97-1.197 1.288-.34.12-.62.18-.84.18-.338 0-.468-.17-.388-.51.698-2.772 1.347-5.136 1.945-7.09.858-2.854 1.756-5.128 2.693-6.824.04-.12.11-.37.21-.748zM38.363 189.21c.02-.82.48-1.188 1.377-1.108.838.06 1.286.528 1.346 1.406.08 1.456.1 2.603.06 3.44-.06.98-.21 2.166-.45 3.562 1.06-1.077 2.076-2.434 3.053-4.07.04-.06.867-1.545 2.483-4.458.24-.44.57-.658.988-.658.24 0 .48.08.72.24.418.278.627.588.627.927 0 .2-.06.39-.18.57-1.735 2.712-4.378 6.423-7.93 11.13-.02.998-.458 1.437-1.316 1.317-.717-.1-1.076-.3-1.076-.598 0-.06.02-.13.06-.21.4-3.452.598-6.035.598-7.75 0-1.357-.12-2.604-.36-3.74zM51.92 189.747c.118-.718.667-1.077 1.644-1.077.6 0 .898.21.898.63 0 .258-.13.617-.39 1.076-.08.16-.188.36-.328.598 1.935-1.376 3.69-2.005 5.266-1.885.18-.06.34-.09.48-.09.977 0 1.465.827 1.465 2.483 0 .6-.09 1.297-.27 2.095.12.937-.248 1.506-1.106 1.705-.16.06-.31.09-.45.09-.34 0-.51-.16-.51-.48 0-.138.04-.328.12-.567.28-.778.39-1.496.33-2.155-.04-.597-.36-.946-.957-1.046-1.078 0-2.265.52-3.56 1.556-.5.4-1.467 1.337-2.904 2.813-.3 1.057-.55 2.563-.75 4.518.12.54-.278.97-1.196 1.288-.34.12-.618.18-.838.18-.34 0-.468-.17-.39-.51l1.677-6.612c.32-1.297.838-2.584 1.556-3.86.08-.38.15-.63.21-.75zM74.54 187.802c.7.18 1.048.46 1.048.838 0 .1-.04.23-.12.39-.3.578-.738.847-1.316.807-.46-.16-.948-.24-1.467-.24-.698 0-1.426.13-2.184.39-1.396.48-2.393 1.137-2.99 1.975-.56.538-.8.967-.72 1.287.08.278.37.338.868.178.66-.22 2.035-.628 4.13-1.227l.21-.06a7.595 7.595 0 0 1 2.273-.298c1.198-.12 2.046.2 2.545.958.3.46.45.947.45 1.466 0 .32-.06.638-.18.957-1.238 2.394-3.163 4.29-5.776 5.686-1.158.358-2.285.538-3.382.538a9.3 9.3 0 0 1-1.766-.18c-1.736-.34-3.082-.888-4.04-1.646-.42-.34-.628-.658-.628-.957 0-.16.05-.3.15-.42.3-.378.748-.508 1.346-.388 1.436 1.077 2.923 1.616 4.46 1.616.876 0 1.864-.18 2.96-.54 2.335-1.316 3.752-2.612 4.25-3.89.08-.2.12-.378.12-.538 0-.518-.37-.778-1.107-.778-.54 0-1.845.28-3.92.838-1.915.52-3.182.778-3.8.778-1.138 0-1.706-.48-1.706-1.436 0-.34.12-.738.36-1.197 1.735-3.37 4.438-5.057 8.108-5.057.6 0 1.207.05 1.826.15zM84.774 183.553c.1-.38.27-.568.51-.568.318 0 .647.18.987.538.34.36.51.7.51 1.018 0 .34-.17.69-.51 1.048-.458.818-.877 1.656-1.256 2.514.22-.02.44-.03.658-.03.997 0 1.925.23 2.783.688.48.06.718.46.718 1.197-.02.758-.35 1.117-.987 1.077-.838-.618-1.756-.927-2.753-.927-.42 0-.848.05-1.287.15-.14.318-.978 2.852-2.514 7.6-.08.24-.12.43-.12.568 0 .56.46.788 1.377.688.358.02.817-.1 1.376-.36a59.75 59.75 0 0 1 1.316-.597c.5 0 .738.3.718.898-.02.638-.2 1.087-.538 1.346-2.234.678-3.7.998-4.4.958-.697-.04-1.246-.35-1.645-.928-.38-.52-.538-1.137-.478-1.855.497-1.596 1.255-4 2.273-7.212-.36.22-.878.57-1.556 1.048a.53.53 0 0 1-.24.06c-.38 0-.568-.35-.568-1.047 0-.36.118-.688.358-.987 1.017-.7 1.985-1.237 2.902-1.616.7-1.975 1.487-3.73 2.364-5.267zM100.753 187.743h.838l.15.42.75.477.627 1.706-.538 2.124-.63.838-2.633 1.317-2.753.688h-1.287l-.808-.927-.928.987-.54.808-.448.69-.18.927.54.808.748.48 1.077.328 2.093-.42.838-.09 1.138-.09.748-.597 1.975-.39-.208.48-1.257 1.406-1.795 1.017-1.077.24-1.018.238-1.107.21H93.81l-1.944-.6-.628-.807-.718-1.315-.18-.63.09-1.286.658-1.197.42-.808.657-.6.45-.687 1.076-1.227 2.844-2.632 1.646-.988c.938-.538 1.795-.838 2.573-.897zm-.808 1.825l-.807.36-2.574 1.824-.45 1.347.15.178 3.382-.867 1.107-1.256.39-.718-.48-.6zM103.536 189.21c.02-.82.48-1.188 1.377-1.108.838.06 1.286.528 1.346 1.406.08 1.456.1 2.603.06 3.44-.06.98-.21 2.166-.45 3.562 1.058-1.077 2.075-2.434 3.052-4.07.04-.06.868-1.545 2.484-4.458.24-.44.57-.658.988-.658.24 0 .478.08.718.24.42.278.628.588.628.927 0 .2-.06.39-.18.57-1.735 2.712-4.378 6.423-7.93 11.13-.02.998-.458 1.437-1.316 1.317-.718-.1-1.077-.3-1.077-.598 0-.06.02-.13.06-.21.4-3.452.598-6.035.598-7.75 0-1.357-.12-2.604-.36-3.74z"/></g><g font-weight="400" color="#000" font-family="Sans"><path d="M114.03 24.417s-15.384 12.1-30.784 28.463c-15.4 16.362-31 36.89-31 54.556h2.68c0-16.04 15.04-36.52 30.283-52.713 15.24-16.194 30.497-28.2 30.497-28.2l-1.676-2.106z" style="text-indent:0;text-align:start;line-height:normal;text-transform:none;block-progression:tb;-inkscape-font-specification:Sans" overflow="visible" enable-background="accumulate"/><path style="text-indent:0;text-align:start;line-height:normal;text-transform:none;block-progression:tb;-inkscape-font-specification:Sans" d="M96.523 21.99a1.287 1.287 0 0 0 .8 2.315l18.816 1.306a1.287 1.287 0 1 0 .223-2.478l-18.88-1.385a1.287 1.287 0 0 0-.96.244z" overflow="visible" enable-background="accumulate"/><path style="text-indent:0;text-align:start;line-height:normal;text-transform:none;block-progression:tb;-inkscape-font-specification:Sans" d="M115.68 24.053a1.287 1.287 0 0 0-.225.69l-3.142 18.6a1.287 1.287 0 1 0 2.525.442l3.08-18.678a1.287 1.287 0 0 0-2.238-1.054z" overflow="visible" enable-background="accumulate"/></g></g></g></svg>